<?xml version="1.0" encoding="UTF-8" standalone="no"?>
<!DOCTYPE svg PUBLIC "-//W3C//DTD SVG 1.1//EN" "http://www.w3.org/Graphics/SVG/1.1/DTD/svg11.dtd">
<svg xmlns="http://www.w3.org/2000/svg" version="1.1" viewBox="0.00 0.00 1024.00 1024.00">
<g stroke-width="2.00" fill="none" stroke-linecap="butt">
<path stroke="#808080" vector-effect="non-scaling-stroke" d="
  M 610.38 437.76
  Q 611.39 471.18 611.86 505.55
  Q 612.26 534.57 613.96 575.43
  C 614.34 584.50 614.53 596.32 614.96 606.75
  Q 615.05 608.97 615.61 612.22
  Q 623.10 655.59 641.54 763.49
  Q 651.16 819.85 666.19 903.57
  Q 666.87 907.37 670.54 906.71
  A 2.52 2.52 0.0 0 0 672.60 904.48
  Q 672.87 901.83 672.37 898.97
  Q 657.44 813.98 649.80 770.58
  Q 647.73 758.82 644.06 737.61
  Q 635.37 687.31 632.34 668.38
  Q 628.57 644.79 622.89 613.32
  Q 622.09 608.89 621.94 605.44
  Q 619.01 539.26 618.21 471.27
  C 618.07 459.14 617.45 444.93 617.28 430.89
  Q 617.21 424.79 617.97 421.16
  Q 618.77 417.34 619.53 411.53
  Q 619.61 410.86 620.29 410.86
  L 664.09 410.86
  Q 664.85 410.86 665.01 410.12
  L 682.18 326.47
  A 2.07 2.06 78.8 0 1 683.04 325.18
  L 691.73 319.25
  A 3.76 3.75 -17.2 0 0 693.37 316.15
  L 693.37 299.78
  A 3.25 3.24 0.0 0 0 690.12 296.54
  L 632.71 296.54
  A 0.65 0.65 0.0 0 1 632.06 295.89
  Q 631.98 288.78 627.85 282.89
  Q 625.68 279.79 624.74 278.51
  A 0.79 0.79 0.0 0 1 624.93 277.40
  Q 629.24 274.40 633.95 269.45
  C 648.46 254.16 661.70 238.24 670.09 220.14
  Q 676.60 206.10 678.10 192.98
  Q 679.65 179.38 677.31 161.48
  Q 673.68 133.79 665.32 104.42
  Q 663.70 98.77 661.08 92.01
  Q 659.32 87.50 654.98 87.55
  C 652.07 87.58 650.82 89.46 648.93 91.92
  Q 592.14 165.78 583.41 177.65
  Q 580.49 181.62 561.55 207.58
  Q 559.53 210.36 557.19 211.49
  Q 549.50 215.22 540.32 213.40
  Q 535.63 212.47 522.32 208.64
  Q 513.65 206.15 505.04 208.80
  Q 495.70 211.67 488.27 212.79
  Q 480.33 213.99 475.85 212.86
  Q 469.27 211.21 465.97 206.49
  Q 445.53 177.23 425.50 151.07
  Q 404.13 123.16 380.60 92.82
  Q 379.46 91.35 377.43 89.34
  Q 375.38 87.29 373.27 87.49
  Q 369.74 87.83 368.37 91.40
  Q 364.30 102.06 360.64 115.85
  Q 353.46 142.87 350.68 169.51
  Q 347.66 198.47 360.92 224.46
  C 370.70 243.65 384.95 260.17 400.98 274.49
  C 402.66 276.00 405.06 276.54 407.16 275.42
  Q 408.43 274.75 408.93 274.60
  Q 410.95 273.97 409.86 275.83
  Q 404.27 285.28 402.32 289.05
  Q 400.57 292.41 400.30 295.93
  A 0.62 0.62 0.0 0 1 399.68 296.51
  L 345.48 296.51
  Q 341.72 296.51 341.72 300.27
  L 341.72 316.19
  A 2.75 2.75 0.0 0 0 342.92 318.46
  L 351.17 324.13
  A 1.13 1.09 -79.1 0 1 351.62 324.82
  L 368.09 410.16
  A 0.90 0.89 -5.5 0 0 368.97 410.88
  L 411.19 410.88
  A 1.24 1.24 0.0 0 1 412.41 411.92
  Q 413.52 418.63 414.35 423.24
  Q 415.05 427.13 414.70 434.58
  Q 413.89 451.81 413.79 456.75
  Q 413.02 493.28 411.72 525.75
  Q 411.30 536.17 406.46 599.50
  Q 405.69 609.45 404.05 619.34
  Q 396.65 663.95 395.13 672.62
  Q 375.53 783.93 353.78 902.24
  Q 353.08 906.03 356.96 906.86
  Q 357.06 906.88 357.10 906.89
  A 3.50 2.77 -79.3 0 0 360.50 903.95
  L 395.58 710.50
  Q 395.78 709.41 396.33 710.37
  Q 449.69 803.69 457.99 818.13
  Q 463.09 827.02 468.06 835.39
  Q 491.97 875.71 508.42 903.05
  C 509.13 904.24 511.06 907.31 513.05 907.45
  C 517.09 907.75 516.99 905.41 516.99 902.25
  Q 516.74 722.87 516.91 516.99
  Q 516.91 515.80 518.10 515.66
  Q 540.50 513.10 556.90 496.87
  Q 584.28 469.79 609.96 437.62
  A 0.24 0.23 63.3 0 1 610.38 437.76"
/>
<path stroke="#808080" vector-effect="non-scaling-stroke" d="
  M 421.62 182.62
  Q 422.08 186.71 421.18 191.69
  Q 415.10 225.32 408.61 260.37
  Q 408.59 260.48 407.91 265.06
  A 0.59 0.58 77.6 0 0 408.81 265.64
  Q 420.41 258.04 425.47 255.21
  Q 450.42 241.25 486.13 221.79
  Q 486.58 221.54 486.11 221.32
  Q 484.95 220.79 482.43 220.86
  Q 478.74 220.96 478.70 220.96
  C 471.81 220.13 466.07 217.61 461.56 212.45
  Q 459.77 210.40 457.18 206.70
  Q 441.11 183.78 418.53 154.10
  Q 399.83 129.52 374.25 96.73
  A 0.51 0.51 0.0 0 0 373.37 96.87
  Q 372.26 99.88 373.76 102.24
  Q 379.43 111.15 382.84 117.07
  Q 389.31 128.30 391.58 132.08
  Q 400.05 146.19 420.31 179.89
  Q 421.54 181.94 421.62 182.62"
/>
<path stroke="#808080" vector-effect="non-scaling-stroke" d="
  M 602.80 196.81
  C 602.05 194.03 602.72 191.95 604.19 189.46
  Q 619.52 163.50 638.24 131.48
  C 642.86 123.59 649.07 112.12 653.98 103.50
  Q 655.70 100.48 654.84 96.84
  A 0.49 0.49 0.0 0 0 653.97 96.66
  Q 647.32 105.62 639.96 115.23
  Q 598.82 168.86 594.29 174.78
  Q 586.92 184.41 570.50 207.64
  Q 566.51 213.29 564.25 215.19
  C 558.66 219.88 550.89 221.65 543.75 221.33
  Q 542.09 221.25 543.56 222.03
  Q 569.80 235.92 598.66 251.79
  Q 604.38 254.94 609.51 258.22
  Q 612.61 260.20 620.11 265.10
  Q 621.01 265.68 620.77 264.64
  Q 618.90 256.62 616.99 249.76
  Q 613.56 237.35 612.93 234.95
  Q 607.93 215.86 602.80 196.81"
/>
<path stroke="#808080" vector-effect="non-scaling-stroke" d="
  M 659.98 112.58
  Q 659.64 111.41 659.46 110.79
  Q 658.95 109.02 658.15 110.67
  Q 656.25 114.55 653.78 118.79
  Q 632.51 155.32 611.07 191.76
  C 610.23 193.19 609.37 194.21 609.84 195.94
  Q 617.12 222.72 628.28 264.33
  A 0.30 0.30 0.0 0 0 628.78 264.46
  C 642.18 250.86 655.04 235.38 663.26 218.54
  Q 671.53 201.59 671.81 183.32
  Q 671.92 175.91 670.67 165.33
  Q 667.45 138.06 659.98 112.58"
/>
<path stroke="#808080" vector-effect="non-scaling-stroke" d="
  M 368.34 113.96
  Q 360.28 143.03 357.76 168.99
  C 356.32 183.80 357.57 199.54 363.45 212.91
  Q 376.11 241.71 399.94 263.44
  A 0.48 0.48 0.0 0 0 400.74 263.18
  Q 408.56 223.38 413.91 192.62
  Q 414.67 188.23 414.68 184.97
  Q 414.69 184.47 414.43 184.04
  L 370.62 111.60
  Q 369.65 109.99 369.01 111.76
  Q 368.78 112.38 368.34 113.96"
/>
<path stroke="#808080" vector-effect="non-scaling-stroke" d="
  M 546.60 297.14
  A 2.31 2.30 -66.1 0 1 548.15 296.54
  L 624.78 296.54
  A 0.69 0.69 0.0 0 0 625.47 295.80
  Q 625.01 290.01 621.66 285.85
  Q 608.30 269.23 604.99 265.03
  Q 602.50 261.87 598.36 259.65
  Q 561.91 240.02 525.13 220.67
  Q 522.23 219.14 517.80 217.17
  A 0.64 0.64 0.0 0 0 516.90 217.76
  L 516.90 322.47
  A 0.97 0.97 0.0 0 0 517.87 323.44
  L 526.50 323.44
  Q 527.84 323.44 528.61 322.35
  Q 539.11 307.45 542.66 301.93
  Q 544.49 299.08 546.60 297.14"
/>
<path stroke="#808080" vector-effect="non-scaling-stroke" d="
  M 480.38 296.71
  C 482.35 296.76 482.82 297.29 484.08 298.99
  Q 488.80 305.40 500.70 322.85
  A 1.00 0.97 -16.6 0 0 501.52 323.28
  L 509.31 323.28
  A 0.53 0.53 0.0 0 0 509.84 322.75
  L 509.84 217.88
  A 0.75 0.75 0.0 0 0 508.73 217.23
  Q 469.74 238.67 431.29 260.08
  C 428.62 261.56 426.69 262.24 424.98 264.97
  Q 414.48 281.71 409.00 291.73
  Q 407.92 293.70 407.39 295.92
  A 0.55 0.55 0.0 0 0 407.93 296.60
  Q 467.53 296.41 480.38 296.71"
/>
<path stroke="#808080" vector-effect="non-scaling-stroke" d="
  M 400.35 307.58
  A 0.75 0.75 0.0 0 0 399.60 306.83
  L 360.22 306.83
  A 0.75 0.75 0.0 0 0 359.48 307.72
  L 361.09 316.06
  A 0.75 0.75 0.0 0 0 361.83 316.67
  L 399.60 316.67
  A 0.75 0.75 0.0 0 0 400.35 315.92
  L 400.35 307.58"
/>
<path stroke="#808080" vector-effect="non-scaling-stroke" d="
  M 632.10 315.87
  A 0.87 0.87 0.0 0 0 632.97 316.74
  L 672.38 316.74
  A 0.87 0.87 0.0 0 0 673.23 316.04
  L 674.93 307.79
  A 0.87 0.87 0.0 0 0 674.07 306.75
  L 632.97 306.75
  A 0.87 0.87 0.0 0 0 632.10 307.62
  L 632.10 315.87"
/>
<path stroke="#808080" vector-effect="non-scaling-stroke" d="
  M 465.12 352.28
  L 452.75 349.21
  Q 451.48 348.90 450.74 349.97
  Q 445.50 357.60 438.28 362.21
  Q 426.77 369.56 414.22 364.84
  A 0.32 0.32 0.0 0 0 413.79 365.17
  Q 414.91 382.43 417.58 399.68
  Q 417.68 400.30 418.31 400.30
  L 456.11 400.30
  A 2.38 2.38 0.0 0 0 458.23 399.00
  L 493.15 330.94
  Q 493.54 330.19 493.05 329.51
  Q 487.40 321.50 479.01 308.99
  Q 477.58 306.85 474.77 306.87
  Q 448.52 307.06 407.94 306.92
  A 0.63 0.63 0.0 0 0 407.31 307.55
  L 407.31 315.97
  A 0.38 0.37 -33.7 0 0 407.79 316.33
  Q 422.13 312.02 434.44 320.29
  Q 441.75 325.20 445.67 329.15
  Q 456.29 339.86 465.71 351.34
  Q 466.83 352.70 465.12 352.28"
/>
<path stroke="#808080" vector-effect="non-scaling-stroke" d="
  M 566.82 352.24
  Q 565.40 352.51 566.30 351.39
  C 575.32 340.03 582.86 330.99 593.61 322.63
  Q 607.90 311.51 624.70 316.61
  Q 625.22 316.77 625.22 316.22
  L 625.22 307.44
  Q 625.22 306.93 624.71 306.93
  L 552.12 306.93
  A 1.28 1.27 17.3 0 0 551.07 307.48
  L 535.95 329.49
  A 2.13 2.13 0.0 0 0 535.80 331.66
  L 570.06 400.08
  A 0.39 0.37 75.0 0 0 570.39 400.28
  L 613.09 400.28
  A 1.16 1.16 0.0 0 0 614.24 399.28
  L 619.00 364.94
  A 0.68 0.68 0.0 0 0 618.05 364.23
  Q 606.69 369.31 595.21 364.27
  C 588.77 361.45 584.02 356.74 579.86 351.24
  Q 578.86 349.92 577.23 350.23
  L 566.82 352.24"
/>
<path stroke="#808080" vector-effect="non-scaling-stroke" d="
  M 384.78 400.38
  A 0.95 0.95 0.0 0 0 385.72 399.27
  L 373.20 327.21
  A 0.95 0.95 0.0 0 0 372.26 326.42
  L 364.02 326.42
  A 0.95 0.95 0.0 0 0 363.09 327.55
  L 377.00 399.61
  A 0.95 0.95 0.0 0 0 377.93 400.38
  L 384.78 400.38"
/>
<path stroke="#808080" vector-effect="non-scaling-stroke" d="
  M 409.66 400.27
  Q 410.48 400.27 410.36 399.46
  Q 407.45 378.24 405.88 359.18
  Q 405.80 358.20 404.32 355.77
  C 401.97 351.90 400.74 346.78 400.64 342.86
  Q 400.44 334.74 400.63 327.27
  A 0.85 0.85 0.0 0 0 399.78 326.40
  L 381.23 326.40
  A 0.52 0.52 0.0 0 0 380.72 327.00
  L 393.37 399.74
  A 0.64 0.63 85.1 0 0 393.99 400.27
  L 409.66 400.27"
/>
<path stroke="#808080" vector-effect="non-scaling-stroke" d="
  M 621.18 399.85
  A 0.43 0.42 -85.9 0 0 621.60 400.34
  L 655.57 400.34
  A 0.63 0.63 0.0 0 0 656.19 399.83
  L 671.10 327.22
  Q 671.27 326.40 670.43 326.40
  L 632.56 326.40
  A 0.45 0.44 88.8 0 0 632.12 326.87
  Q 632.39 332.45 632.22 340.32
  Q 632.13 344.38 631.43 347.13
  Q 630.21 351.86 629.18 353.65
  Q 627.23 357.04 627.06 358.31
  Q 624.29 378.99 621.18 399.85"
/>
<path stroke="#808080" vector-effect="non-scaling-stroke" d="
  M 465.76 409.08
  C 465.08 410.54 464.45 410.87 462.88 410.87
  Q 449.96 410.89 419.88 410.88
  A 0.58 0.58 0.0 0 0 419.30 411.53
  Q 420.14 417.86 421.45 424.65
  Q 421.58 425.36 421.92 426.05
  Q 422.33 426.87 422.68 427.35
  Q 438.43 448.44 458.18 465.75
  A 0.47 0.47 0.0 0 0 458.96 465.47
  Q 462.79 440.77 467.48 413.52
  Q 468.54 407.31 469.76 405.17
  C 473.49 398.57 481.54 393.66 488.99 395.75
  Q 492.51 396.73 499.28 402.53
  Q 502.11 404.95 509.19 411.19
  Q 510.38 412.24 510.00 410.70
  Q 509.81 409.96 509.81 408.75
  Q 509.85 377.98 509.82 337.06
  A 1.16 1.16 0.0 0 0 508.93 335.93
  C 506.87 335.44 502.93 335.14 501.69 337.45
  Q 482.77 372.79 465.76 409.08"
/>
<path stroke="#808080" vector-effect="non-scaling-stroke" d="
  M 562.73 410.29
  Q 561.82 408.93 561.03 407.21
  Q 544.06 370.66 526.17 336.51
  Q 525.89 335.98 525.29 335.98
  L 517.68 335.98
  Q 516.90 335.98 516.90 336.75
  L 516.90 411.10
  A 0.36 0.35 69.3 0 0 517.49 411.37
  Q 523.54 405.92 533.24 398.71
  Q 539.05 394.39 544.66 395.83
  Q 558.91 399.47 561.38 414.47
  Q 564.54 433.65 569.22 468.08
  C 569.50 470.10 569.31 471.61 569.28 473.36
  Q 569.27 474.22 569.85 473.59
  Q 590.33 451.68 609.18 427.67
  C 609.80 426.88 610.44 425.73 610.60 424.60
  Q 611.53 418.04 612.34 411.65
  A 0.67 0.67 0.0 0 0 611.68 410.90
  L 563.88 410.90
  A 1.39 1.38 -16.8 0 1 562.73 410.29"
/>
<path stroke="#808080" vector-effect="non-scaling-stroke" d="
  M 479.38 404.81
  Q 475.94 407.48 475.23 411.29
  Q 472.34 426.84 466.41 462.99
  C 466.12 464.73 465.89 465.73 467.25 467.06
  Q 474.50 474.13 484.26 479.05
  Q 490.27 482.08 496.48 482.44
  C 499.17 482.59 501.59 481.74 503.72 480.23
  Q 507.70 477.40 509.54 475.96
  Q 509.91 475.67 509.91 475.20
  L 509.91 421.73
  Q 509.91 421.19 509.49 420.85
  Q 501.35 414.25 492.03 405.55
  Q 485.86 399.79 479.38 404.81"
/>
<path stroke="#808080" vector-effect="non-scaling-stroke" d="
  M 522.07 416.54
  Q 519.38 418.63 517.52 420.61
  A 2.42 2.42 0.0 0 0 516.86 422.27
  L 516.86 474.88
  A 0.94 0.93 17.4 0 0 517.27 475.65
  Q 520.61 477.97 525.86 480.69
  Q 537.64 486.79 548.02 480.00
  Q 555.98 474.79 561.28 466.38
  Q 561.85 465.48 561.69 464.43
  Q 557.32 435.60 554.86 420.17
  Q 553.49 411.57 552.76 409.88
  Q 550.43 404.56 543.96 402.77
  Q 541.78 402.17 540.02 402.70
  Q 537.89 403.35 536.38 404.63
  Q 524.69 414.50 522.07 416.54"
/>
<path stroke="#808080" vector-effect="non-scaling-stroke" d="
  M 398.06 699.52
  Q 400.52 703.27 403.87 709.12
  Q 442.55 776.77 468.71 822.13
  Q 474.55 832.27 478.77 839.42
  Q 487.88 854.88 505.70 884.34
  Q 509.04 889.87 509.69 890.78
  A 0.10 0.10 0.0 0 0 509.88 890.72
  L 509.88 516.37
  A 0.81 0.81 0.0 0 0 509.13 515.56
  Q 493.12 514.25 480.96 503.82
  Q 469.01 493.57 461.23 478.00
  Q 460.58 476.72 459.90 476.14
  Q 438.58 458.04 422.16 438.58
  Q 421.54 437.84 421.50 438.80
  Q 420.78 457.67 419.55 504.28
  Q 419.30 513.55 418.62 524.27
  Q 416.20 562.15 412.92 606.77
  Q 412.70 609.72 412.34 611.88
  Q 406.72 645.67 398.48 694.25
  Q 398.16 696.18 397.95 699.09
  A 0.70 0.66 32.2 0 0 398.06 699.52"
/>
<path stroke="#808080" vector-effect="non-scaling-stroke" d="
  M 470.41 479.15
  A 0.24 0.23 -51.5 0 0 470.07 479.19
  Q 469.93 479.38 470.14 479.75
  C 478.75 494.31 491.18 506.76 508.56 508.59
  Q 509.80 508.72 509.80 507.48
  L 509.80 485.46
  A 0.59 0.59 0.0 0 0 508.83 485.01
  Q 501.23 491.34 490.95 489.03
  Q 479.58 486.47 470.41 479.15"
/>
<path stroke="#808080" vector-effect="non-scaling-stroke" d="
  M 556.42 483.01
  Q 557.25 481.29 555.75 482.48
  Q 550.60 486.57 544.69 488.89
  C 535.70 492.40 525.61 489.67 517.79 484.49
  A 0.54 0.54 0.0 0 0 516.95 484.94
  L 516.95 507.98
  A 0.74 0.74 0.0 0 0 517.77 508.72
  C 534.33 506.98 549.05 498.26 556.42 483.01"
/>
</g>
<path fill="#ffffff" d="
  M 1024.00 0.00
  L 1024.00 1024.00
  L 0.00 1024.00
  L 0.00 0.00
  L 1024.00 0.00
  Z
  M 610.38 437.76
  Q 611.39 471.18 611.86 505.55
  Q 612.26 534.57 613.96 575.43
  C 614.34 584.50 614.53 596.32 614.96 606.75
  Q 615.05 608.97 615.61 612.22
  Q 623.10 655.59 641.54 763.49
  Q 651.16 819.85 666.19 903.57
  Q 666.87 907.37 670.54 906.71
  A 2.52 2.52 0.0 0 0 672.60 904.48
  Q 672.87 901.83 672.37 898.97
  Q 657.44 813.98 649.80 770.58
  Q 647.73 758.82 644.06 737.61
  Q 635.37 687.31 632.34 668.38
  Q 628.57 644.79 622.89 613.32
  Q 622.09 608.89 621.94 605.44
  Q 619.01 539.26 618.21 471.27
  C 618.07 459.14 617.45 444.93 617.28 430.89
  Q 617.21 424.79 617.97 421.16
  Q 618.77 417.34 619.53 411.53
  Q 619.61 410.86 620.29 410.86
  L 664.09 410.86
  Q 664.85 410.86 665.01 410.12
  L 682.18 326.47
  A 2.07 2.06 78.8 0 1 683.04 325.18
  L 691.73 319.25
  A 3.76 3.75 -17.2 0 0 693.37 316.15
  L 693.37 299.78
  A 3.25 3.24 0.0 0 0 690.12 296.54
  L 632.71 296.54
  A 0.65 0.65 0.0 0 1 632.06 295.89
  Q 631.98 288.78 627.85 282.89
  Q 625.68 279.79 624.74 278.51
  A 0.79 0.79 0.0 0 1 624.93 277.40
  Q 629.24 274.40 633.95 269.45
  C 648.46 254.16 661.70 238.24 670.09 220.14
  Q 676.60 206.10 678.10 192.98
  Q 679.65 179.38 677.31 161.48
  Q 673.68 133.79 665.32 104.42
  Q 663.70 98.77 661.08 92.01
  Q 659.32 87.50 654.98 87.55
  C 652.07 87.58 650.82 89.46 648.93 91.92
  Q 592.14 165.78 583.41 177.65
  Q 580.49 181.62 561.55 207.58
  Q 559.53 210.36 557.19 211.49
  Q 549.50 215.22 540.32 213.40
  Q 535.63 212.47 522.32 208.64
  Q 513.65 206.15 505.04 208.80
  Q 495.70 211.67 488.27 212.79
  Q 480.33 213.99 475.85 212.86
  Q 469.27 211.21 465.97 206.49
  Q 445.53 177.23 425.50 151.07
  Q 404.13 123.16 380.60 92.82
  Q 379.46 91.35 377.43 89.34
  Q 375.38 87.29 373.27 87.49
  Q 369.74 87.83 368.37 91.40
  Q 364.30 102.06 360.64 115.85
  Q 353.46 142.87 350.68 169.51
  Q 347.66 198.47 360.92 224.46
  C 370.70 243.65 384.95 260.17 400.98 274.49
  C 402.66 276.00 405.06 276.54 407.16 275.42
  Q 408.43 274.75 408.93 274.60
  Q 410.95 273.97 409.86 275.83
  Q 404.27 285.28 402.32 289.05
  Q 400.57 292.41 400.30 295.93
  A 0.62 0.62 0.0 0 1 399.68 296.51
  L 345.48 296.51
  Q 341.72 296.51 341.72 300.27
  L 341.72 316.19
  A 2.75 2.75 0.0 0 0 342.92 318.46
  L 351.17 324.13
  A 1.13 1.09 -79.1 0 1 351.62 324.82
  L 368.09 410.16
  A 0.90 0.89 -5.5 0 0 368.97 410.88
  L 411.19 410.88
  A 1.24 1.24 0.0 0 1 412.41 411.92
  Q 413.52 418.63 414.35 423.24
  Q 415.05 427.13 414.70 434.58
  Q 413.89 451.81 413.79 456.75
  Q 413.02 493.28 411.72 525.75
  Q 411.30 536.17 406.46 599.50
  Q 405.69 609.45 404.05 619.34
  Q 396.65 663.95 395.13 672.62
  Q 375.53 783.93 353.78 902.24
  Q 353.08 906.03 356.96 906.86
  Q 357.06 906.88 357.10 906.89
  A 3.50 2.77 -79.3 0 0 360.50 903.95
  L 395.58 710.50
  Q 395.78 709.41 396.33 710.37
  Q 449.69 803.69 457.99 818.13
  Q 463.09 827.02 468.06 835.39
  Q 491.97 875.71 508.42 903.05
  C 509.13 904.24 511.06 907.31 513.05 907.45
  C 517.09 907.75 516.99 905.41 516.99 902.25
  Q 516.74 722.87 516.91 516.99
  Q 516.91 515.80 518.10 515.66
  Q 540.50 513.10 556.90 496.87
  Q 584.28 469.79 609.96 437.62
  A 0.24 0.23 63.3 0 1 610.38 437.76
  Z"
/>
<path fill="#010101" d="
  M 610.38 437.76
  A 0.24 0.23 63.3 0 0 609.96 437.62
  Q 584.28 469.79 556.90 496.87
  Q 540.50 513.10 518.10 515.66
  Q 516.91 515.80 516.91 516.99
  Q 516.74 722.87 516.99 902.25
  C 516.99 905.41 517.09 907.75 513.05 907.45
  C 511.06 907.31 509.13 904.24 508.42 903.05
  Q 491.97 875.71 468.06 835.39
  Q 463.09 827.02 457.99 818.13
  Q 449.69 803.69 396.33 710.37
  Q 395.78 709.41 395.58 710.50
  L 360.50 903.95
  A 3.50 2.77 -79.3 0 1 357.10 906.89
  Q 357.06 906.88 356.96 906.86
  Q 353.08 906.03 353.78 902.24
  Q 375.53 783.93 395.13 672.62
  Q 396.65 663.95 404.05 619.34
  Q 405.69 609.45 406.46 599.50
  Q 411.30 536.17 411.72 525.75
  Q 413.02 493.28 413.79 456.75
  Q 413.89 451.81 414.70 434.58
  Q 415.05 427.13 414.35 423.24
  Q 413.52 418.63 412.41 411.92
  A 1.24 1.24 0.0 0 0 411.19 410.88
  L 368.97 410.88
  A 0.90 0.89 -5.5 0 1 368.09 410.16
  L 351.62 324.82
  A 1.13 1.09 -79.1 0 0 351.17 324.13
  L 342.92 318.46
  A 2.75 2.75 0.0 0 1 341.72 316.19
  L 341.72 300.27
  Q 341.72 296.51 345.48 296.51
  L 399.68 296.51
  A 0.62 0.62 0.0 0 0 400.30 295.93
  Q 400.57 292.41 402.32 289.05
  Q 404.27 285.28 409.86 275.83
  Q 410.95 273.97 408.93 274.60
  Q 408.43 274.75 407.16 275.42
  C 405.06 276.54 402.66 276.00 400.98 274.49
  C 384.95 260.17 370.70 243.65 360.92 224.46
  Q 347.66 198.47 350.68 169.51
  Q 353.46 142.87 360.64 115.85
  Q 364.30 102.06 368.37 91.40
  Q 369.74 87.83 373.27 87.49
  Q 375.38 87.29 377.43 89.34
  Q 379.46 91.35 380.60 92.82
  Q 404.13 123.16 425.50 151.07
  Q 445.53 177.23 465.97 206.49
  Q 469.27 211.21 475.85 212.86
  Q 480.33 213.99 488.27 212.79
  Q 495.70 211.67 505.04 208.80
  Q 513.65 206.15 522.32 208.64
  Q 535.63 212.47 540.32 213.40
  Q 549.50 215.22 557.19 211.49
  Q 559.53 210.36 561.55 207.58
  Q 580.49 181.62 583.41 177.65
  Q 592.14 165.78 648.93 91.92
  C 650.82 89.46 652.07 87.58 654.98 87.55
  Q 659.32 87.50 661.08 92.01
  Q 663.70 98.77 665.32 104.42
  Q 673.68 133.79 677.31 161.48
  Q 679.65 179.38 678.10 192.98
  Q 676.60 206.10 670.09 220.14
  C 661.70 238.24 648.46 254.16 633.95 269.45
  Q 629.24 274.40 624.93 277.40
  A 0.79 0.79 0.0 0 0 624.74 278.51
  Q 625.68 279.79 627.85 282.89
  Q 631.98 288.78 632.06 295.89
  A 0.65 0.65 0.0 0 0 632.71 296.54
  L 690.12 296.54
  A 3.25 3.24 0.0 0 1 693.37 299.78
  L 693.37 316.15
  A 3.76 3.75 -17.2 0 1 691.73 319.25
  L 683.04 325.18
  A 2.07 2.06 78.8 0 0 682.18 326.47
  L 665.01 410.12
  Q 664.85 410.86 664.09 410.86
  L 620.29 410.86
  Q 619.61 410.86 619.53 411.53
  Q 618.77 417.34 617.97 421.16
  Q 617.21 424.79 617.28 430.89
  C 617.45 444.93 618.07 459.14 618.21 471.27
  Q 619.01 539.26 621.94 605.44
  Q 622.09 608.89 622.89 613.32
  Q 628.57 644.79 632.34 668.38
  Q 635.37 687.31 644.06 737.61
  Q 647.73 758.82 649.80 770.58
  Q 657.44 813.98 672.37 898.97
  Q 672.87 901.83 672.60 904.48
  A 2.52 2.52 0.0 0 1 670.54 906.71
  Q 666.87 907.37 666.19 903.57
  Q 651.16 819.85 641.54 763.49
  Q 623.10 655.59 615.61 612.22
  Q 615.05 608.97 614.96 606.75
  C 614.53 596.32 614.34 584.50 613.96 575.43
  Q 612.26 534.57 611.86 505.55
  Q 611.39 471.18 610.38 437.76
  Z
  M 421.62 182.62
  Q 422.08 186.71 421.18 191.69
  Q 415.10 225.32 408.61 260.37
  Q 408.59 260.48 407.91 265.06
  A 0.59 0.58 77.6 0 0 408.81 265.64
  Q 420.41 258.04 425.47 255.21
  Q 450.42 241.25 486.13 221.79
  Q 486.58 221.54 486.11 221.32
  Q 484.95 220.79 482.43 220.86
  Q 478.74 220.96 478.70 220.96
  C 471.81 220.13 466.07 217.61 461.56 212.45
  Q 459.77 210.40 457.18 206.70
  Q 441.11 183.78 418.53 154.10
  Q 399.83 129.52 374.25 96.73
  A 0.51 0.51 0.0 0 0 373.37 96.87
  Q 372.26 99.88 373.76 102.24
  Q 379.43 111.15 382.84 117.07
  Q 389.31 128.30 391.58 132.08
  Q 400.05 146.19 420.31 179.89
  Q 421.54 181.94 421.62 182.62
  Z
  M 602.80 196.81
  C 602.05 194.03 602.72 191.95 604.19 189.46
  Q 619.52 163.50 638.24 131.48
  C 642.86 123.59 649.07 112.12 653.98 103.50
  Q 655.70 100.48 654.84 96.84
  A 0.49 0.49 0.0 0 0 653.97 96.66
  Q 647.32 105.62 639.96 115.23
  Q 598.82 168.86 594.29 174.78
  Q 586.92 184.41 570.50 207.64
  Q 566.51 213.29 564.25 215.19
  C 558.66 219.88 550.89 221.65 543.75 221.33
  Q 542.09 221.25 543.56 222.03
  Q 569.80 235.92 598.66 251.79
  Q 604.38 254.94 609.51 258.22
  Q 612.61 260.20 620.11 265.10
  Q 621.01 265.68 620.77 264.64
  Q 618.90 256.62 616.99 249.76
  Q 613.56 237.35 612.93 234.95
  Q 607.93 215.86 602.80 196.81
  Z
  M 659.98 112.58
  Q 659.64 111.41 659.46 110.79
  Q 658.95 109.02 658.15 110.67
  Q 656.25 114.55 653.78 118.79
  Q 632.51 155.32 611.07 191.76
  C 610.23 193.19 609.37 194.21 609.84 195.94
  Q 617.12 222.72 628.28 264.33
  A 0.30 0.30 0.0 0 0 628.78 264.46
  C 642.18 250.86 655.04 235.38 663.26 218.54
  Q 671.53 201.59 671.81 183.32
  Q 671.92 175.91 670.67 165.33
  Q 667.45 138.06 659.98 112.58
  Z
  M 368.34 113.96
  Q 360.28 143.03 357.76 168.99
  C 356.32 183.80 357.57 199.54 363.45 212.91
  Q 376.11 241.71 399.94 263.44
  A 0.48 0.48 0.0 0 0 400.74 263.18
  Q 408.56 223.38 413.91 192.62
  Q 414.67 188.23 414.68 184.97
  Q 414.69 184.47 414.43 184.04
  L 370.62 111.60
  Q 369.65 109.99 369.01 111.76
  Q 368.78 112.38 368.34 113.96
  Z
  M 546.60 297.14
  A 2.31 2.30 -66.1 0 1 548.15 296.54
  L 624.78 296.54
  A 0.69 0.69 0.0 0 0 625.47 295.80
  Q 625.01 290.01 621.66 285.85
  Q 608.30 269.23 604.99 265.03
  Q 602.50 261.87 598.36 259.65
  Q 561.91 240.02 525.13 220.67
  Q 522.23 219.14 517.80 217.17
  A 0.64 0.64 0.0 0 0 516.90 217.76
  L 516.90 322.47
  A 0.97 0.97 0.0 0 0 517.87 323.44
  L 526.50 323.44
  Q 527.84 323.44 528.61 322.35
  Q 539.11 307.45 542.66 301.93
  Q 544.49 299.08 546.60 297.14
  Z
  M 480.38 296.71
  C 482.35 296.76 482.82 297.29 484.08 298.99
  Q 488.80 305.40 500.70 322.85
  A 1.00 0.97 -16.6 0 0 501.52 323.28
  L 509.31 323.28
  A 0.53 0.53 0.0 0 0 509.84 322.75
  L 509.84 217.88
  A 0.75 0.75 0.0 0 0 508.73 217.23
  Q 469.74 238.67 431.29 260.08
  C 428.62 261.56 426.69 262.24 424.98 264.97
  Q 414.48 281.71 409.00 291.73
  Q 407.92 293.70 407.39 295.92
  A 0.55 0.55 0.0 0 0 407.93 296.60
  Q 467.53 296.41 480.38 296.71
  Z
  M 400.35 307.58
  A 0.75 0.75 0.0 0 0 399.60 306.83
  L 360.22 306.83
  A 0.75 0.75 0.0 0 0 359.48 307.72
  L 361.09 316.06
  A 0.75 0.75 0.0 0 0 361.83 316.67
  L 399.60 316.67
  A 0.75 0.75 0.0 0 0 400.35 315.92
  L 400.35 307.58
  Z
  M 632.10 315.87
  A 0.87 0.87 0.0 0 0 632.97 316.74
  L 672.38 316.74
  A 0.87 0.87 0.0 0 0 673.23 316.04
  L 674.93 307.79
  A 0.87 0.87 0.0 0 0 674.07 306.75
  L 632.97 306.75
  A 0.87 0.87 0.0 0 0 632.10 307.62
  L 632.10 315.87
  Z
  M 465.12 352.28
  L 452.75 349.21
  Q 451.48 348.90 450.74 349.97
  Q 445.50 357.60 438.28 362.21
  Q 426.77 369.56 414.22 364.84
  A 0.32 0.32 0.0 0 0 413.79 365.17
  Q 414.91 382.43 417.58 399.68
  Q 417.68 400.30 418.31 400.30
  L 456.11 400.30
  A 2.38 2.38 0.0 0 0 458.23 399.00
  L 493.15 330.94
  Q 493.54 330.19 493.05 329.51
  Q 487.40 321.50 479.01 308.99
  Q 477.58 306.85 474.77 306.87
  Q 448.52 307.06 407.94 306.92
  A 0.63 0.63 0.0 0 0 407.31 307.55
  L 407.31 315.97
  A 0.38 0.37 -33.7 0 0 407.79 316.33
  Q 422.13 312.02 434.44 320.29
  Q 441.75 325.20 445.67 329.15
  Q 456.29 339.86 465.71 351.34
  Q 466.83 352.70 465.12 352.28
  Z
  M 566.82 352.24
  Q 565.40 352.51 566.30 351.39
  C 575.32 340.03 582.86 330.99 593.61 322.63
  Q 607.90 311.51 624.70 316.61
  Q 625.22 316.77 625.22 316.22
  L 625.22 307.44
  Q 625.22 306.93 624.71 306.93
  L 552.12 306.93
  A 1.28 1.27 17.3 0 0 551.07 307.48
  L 535.95 329.49
  A 2.13 2.13 0.0 0 0 535.80 331.66
  L 570.06 400.08
  A 0.39 0.37 75.0 0 0 570.39 400.28
  L 613.09 400.28
  A 1.16 1.16 0.0 0 0 614.24 399.28
  L 619.00 364.94
  A 0.68 0.68 0.0 0 0 618.05 364.23
  Q 606.69 369.31 595.21 364.27
  C 588.77 361.45 584.02 356.74 579.86 351.24
  Q 578.86 349.92 577.23 350.23
  L 566.82 352.24
  Z
  M 384.78 400.38
  A 0.95 0.95 0.0 0 0 385.72 399.27
  L 373.20 327.21
  A 0.95 0.95 0.0 0 0 372.26 326.42
  L 364.02 326.42
  A 0.95 0.95 0.0 0 0 363.09 327.55
  L 377.00 399.61
  A 0.95 0.95 0.0 0 0 377.93 400.38
  L 384.78 400.38
  Z
  M 409.66 400.27
  Q 410.48 400.27 410.36 399.46
  Q 407.45 378.24 405.88 359.18
  Q 405.80 358.20 404.32 355.77
  C 401.97 351.90 400.74 346.78 400.64 342.86
  Q 400.44 334.74 400.63 327.27
  A 0.85 0.85 0.0 0 0 399.78 326.40
  L 381.23 326.40
  A 0.52 0.52 0.0 0 0 380.72 327.00
  L 393.37 399.74
  A 0.64 0.63 85.1 0 0 393.99 400.27
  L 409.66 400.27
  Z
  M 621.18 399.85
  A 0.43 0.42 -85.9 0 0 621.60 400.34
  L 655.57 400.34
  A 0.63 0.63 0.0 0 0 656.19 399.83
  L 671.10 327.22
  Q 671.27 326.40 670.43 326.40
  L 632.56 326.40
  A 0.45 0.44 88.8 0 0 632.12 326.87
  Q 632.39 332.45 632.22 340.32
  Q 632.13 344.38 631.43 347.13
  Q 630.21 351.86 629.18 353.65
  Q 627.23 357.04 627.06 358.31
  Q 624.29 378.99 621.18 399.85
  Z
  M 465.76 409.08
  C 465.08 410.54 464.45 410.87 462.88 410.87
  Q 449.96 410.89 419.88 410.88
  A 0.58 0.58 0.0 0 0 419.30 411.53
  Q 420.14 417.86 421.45 424.65
  Q 421.58 425.36 421.92 426.05
  Q 422.33 426.87 422.68 427.35
  Q 438.43 448.44 458.18 465.75
  A 0.47 0.47 0.0 0 0 458.96 465.47
  Q 462.79 440.77 467.48 413.52
  Q 468.54 407.31 469.76 405.17
  C 473.49 398.57 481.54 393.66 488.99 395.75
  Q 492.51 396.73 499.28 402.53
  Q 502.11 404.95 509.19 411.19
  Q 510.38 412.24 510.00 410.70
  Q 509.81 409.96 509.81 408.75
  Q 509.85 377.98 509.82 337.06
  A 1.16 1.16 0.0 0 0 508.93 335.93
  C 506.87 335.44 502.93 335.14 501.69 337.45
  Q 482.77 372.79 465.76 409.08
  Z
  M 562.73 410.29
  Q 561.82 408.93 561.03 407.21
  Q 544.06 370.66 526.17 336.51
  Q 525.89 335.98 525.29 335.98
  L 517.68 335.98
  Q 516.90 335.98 516.90 336.75
  L 516.90 411.10
  A 0.36 0.35 69.3 0 0 517.49 411.37
  Q 523.54 405.92 533.24 398.71
  Q 539.05 394.39 544.66 395.83
  Q 558.91 399.47 561.38 414.47
  Q 564.54 433.65 569.22 468.08
  C 569.50 470.10 569.31 471.61 569.28 473.36
  Q 569.27 474.22 569.85 473.59
  Q 590.33 451.68 609.18 427.67
  C 609.80 426.88 610.44 425.73 610.60 424.60
  Q 611.53 418.04 612.34 411.65
  A 0.67 0.67 0.0 0 0 611.68 410.90
  L 563.88 410.90
  A 1.39 1.38 -16.8 0 1 562.73 410.29
  Z
  M 479.38 404.81
  Q 475.94 407.48 475.23 411.29
  Q 472.34 426.84 466.41 462.99
  C 466.12 464.73 465.89 465.73 467.25 467.06
  Q 474.50 474.13 484.26 479.05
  Q 490.27 482.08 496.48 482.44
  C 499.17 482.59 501.59 481.74 503.72 480.23
  Q 507.70 477.40 509.54 475.96
  Q 509.91 475.67 509.91 475.20
  L 509.91 421.73
  Q 509.91 421.19 509.49 420.85
  Q 501.35 414.25 492.03 405.55
  Q 485.86 399.79 479.38 404.81
  Z
  M 522.07 416.54
  Q 519.38 418.63 517.52 420.61
  A 2.42 2.42 0.0 0 0 516.86 422.27
  L 516.86 474.88
  A 0.94 0.93 17.4 0 0 517.27 475.65
  Q 520.61 477.97 525.86 480.69
  Q 537.64 486.79 548.02 480.00
  Q 555.98 474.79 561.28 466.38
  Q 561.85 465.48 561.69 464.43
  Q 557.32 435.60 554.86 420.17
  Q 553.49 411.57 552.76 409.88
  Q 550.43 404.56 543.96 402.77
  Q 541.78 402.17 540.02 402.70
  Q 537.89 403.35 536.38 404.63
  Q 524.69 414.50 522.07 416.54
  Z
  M 398.06 699.52
  Q 400.52 703.27 403.87 709.12
  Q 442.55 776.77 468.71 822.13
  Q 474.55 832.27 478.77 839.42
  Q 487.88 854.88 505.70 884.34
  Q 509.04 889.87 509.69 890.78
  A 0.10 0.10 0.0 0 0 509.88 890.72
  L 509.88 516.37
  A 0.81 0.81 0.0 0 0 509.13 515.56
  Q 493.12 514.25 480.96 503.82
  Q 469.01 493.57 461.23 478.00
  Q 460.58 476.72 459.90 476.14
  Q 438.58 458.04 422.16 438.58
  Q 421.54 437.84 421.50 438.80
  Q 420.78 457.67 419.55 504.28
  Q 419.30 513.55 418.62 524.27
  Q 416.20 562.15 412.92 606.77
  Q 412.70 609.72 412.34 611.88
  Q 406.72 645.67 398.48 694.25
  Q 398.16 696.18 397.95 699.09
  A 0.70 0.66 32.2 0 0 398.06 699.52
  Z
  M 470.41 479.15
  A 0.24 0.23 -51.5 0 0 470.07 479.19
  Q 469.93 479.38 470.14 479.75
  C 478.75 494.31 491.18 506.76 508.56 508.59
  Q 509.80 508.72 509.80 507.48
  L 509.80 485.46
  A 0.59 0.59 0.0 0 0 508.83 485.01
  Q 501.23 491.34 490.95 489.03
  Q 479.58 486.47 470.41 479.15
  Z
  M 556.42 483.01
  Q 557.25 481.29 555.75 482.48
  Q 550.60 486.57 544.69 488.89
  C 535.70 492.40 525.61 489.67 517.79 484.49
  A 0.54 0.54 0.0 0 0 516.95 484.94
  L 516.95 507.98
  A 0.74 0.74 0.0 0 0 517.77 508.72
  C 534.33 506.98 549.05 498.26 556.42 483.01
  Z"
/>
<path fill="#ffffff" d="
  M 421.62 182.62
  Q 421.54 181.94 420.31 179.89
  Q 400.05 146.19 391.58 132.08
  Q 389.31 128.30 382.84 117.07
  Q 379.43 111.15 373.76 102.24
  Q 372.26 99.88 373.37 96.87
  A 0.51 0.51 0.0 0 1 374.25 96.73
  Q 399.83 129.52 418.53 154.10
  Q 441.11 183.78 457.18 206.70
  Q 459.77 210.40 461.56 212.45
  C 466.07 217.61 471.81 220.13 478.70 220.96
  Q 478.74 220.96 482.43 220.86
  Q 484.95 220.79 486.11 221.32
  Q 486.58 221.54 486.13 221.79
  Q 450.42 241.25 425.47 255.21
  Q 420.41 258.04 408.81 265.64
  A 0.59 0.58 77.6 0 1 407.91 265.06
  Q 408.59 260.48 408.61 260.37
  Q 415.10 225.32 421.18 191.69
  Q 422.08 186.71 421.62 182.62
  Z"
/>
<path fill="#ffffff" d="
  M 604.19 189.46
  C 602.72 191.95 602.05 194.03 602.80 196.81
  Q 607.93 215.86 612.93 234.95
  Q 613.56 237.35 616.99 249.76
  Q 618.90 256.62 620.77 264.64
  Q 621.01 265.68 620.11 265.10
  Q 612.61 260.20 609.51 258.22
  Q 604.38 254.94 598.66 251.79
  Q 569.80 235.92 543.56 222.03
  Q 542.09 221.25 543.75 221.33
  C 550.89 221.65 558.66 219.88 564.25 215.19
  Q 566.51 213.29 570.50 207.64
  Q 586.92 184.41 594.29 174.78
  Q 598.82 168.86 639.96 115.23
  Q 647.32 105.62 653.97 96.66
  A 0.49 0.49 0.0 0 1 654.84 96.84
  Q 655.70 100.48 653.98 103.50
  C 649.07 112.12 642.86 123.59 638.24 131.48
  Q 619.52 163.50 604.19 189.46
  Z"
/>
<path fill="#ffffff" d="
  M 659.98 112.58
  Q 667.45 138.06 670.67 165.33
  Q 671.92 175.91 671.81 183.32
  Q 671.53 201.59 663.26 218.54
  C 655.04 235.38 642.18 250.86 628.78 264.46
  A 0.30 0.30 0.0 0 1 628.28 264.33
  Q 617.12 222.72 609.84 195.94
  C 609.37 194.21 610.23 193.19 611.07 191.76
  Q 632.51 155.32 653.78 118.79
  Q 656.25 114.55 658.15 110.67
  Q 658.95 109.02 659.46 110.79
  Q 659.64 111.41 659.98 112.58
  Z"
/>
<path fill="#ffffff" d="
  M 368.34 113.96
  Q 368.78 112.38 369.01 111.76
  Q 369.65 109.99 370.62 111.60
  L 414.43 184.04
  Q 414.69 184.47 414.68 184.97
  Q 414.67 188.23 413.91 192.62
  Q 408.56 223.38 400.74 263.18
  A 0.48 0.48 0.0 0 1 399.94 263.44
  Q 376.11 241.71 363.45 212.91
  C 357.57 199.54 356.32 183.80 357.76 168.99
  Q 360.28 143.03 368.34 113.96
  Z"
/>
<path fill="#ffffff" d="
  M 546.60 297.14
  Q 544.49 299.08 542.66 301.93
  Q 539.11 307.45 528.61 322.35
  Q 527.84 323.44 526.50 323.44
  L 517.87 323.44
  A 0.97 0.97 0.0 0 1 516.90 322.47
  L 516.90 217.76
  A 0.64 0.64 0.0 0 1 517.80 217.17
  Q 522.23 219.14 525.13 220.67
  Q 561.91 240.02 598.36 259.65
  Q 602.50 261.87 604.99 265.03
  Q 608.30 269.23 621.66 285.85
  Q 625.01 290.01 625.47 295.80
  A 0.69 0.69 0.0 0 1 624.78 296.54
  L 548.15 296.54
  A 2.31 2.30 -66.1 0 0 546.60 297.14
  Z"
/>
<path fill="#ffffff" d="
  M 484.08 298.99
  C 482.82 297.29 482.35 296.76 480.38 296.71
  Q 467.53 296.41 407.93 296.60
  A 0.55 0.55 0.0 0 1 407.39 295.92
  Q 407.92 293.70 409.00 291.73
  Q 414.48 281.71 424.98 264.97
  C 426.69 262.24 428.62 261.56 431.29 260.08
  Q 469.74 238.67 508.73 217.23
  A 0.75 0.75 0.0 0 1 509.84 217.88
  L 509.84 322.75
  A 0.53 0.53 0.0 0 1 509.31 323.28
  L 501.52 323.28
  A 1.00 0.97 -16.6 0 1 500.70 322.85
  Q 488.80 305.40 484.08 298.99
  Z"
/>
<path fill="#ffffff" d="
  M 400.35 307.58
  L 400.35 315.92
  A 0.75 0.75 0.0 0 1 399.60 316.67
  L 361.83 316.67
  A 0.75 0.75 0.0 0 1 361.09 316.06
  L 359.48 307.72
  A 0.75 0.75 0.0 0 1 360.22 306.83
  L 399.60 306.83
  A 0.75 0.75 0.0 0 1 400.35 307.58
  Z"
/>
<path fill="#ffffff" d="
  M 632.10 315.87
  L 632.10 307.62
  A 0.87 0.87 0.0 0 1 632.97 306.75
  L 674.07 306.75
  A 0.87 0.87 0.0 0 1 674.93 307.79
  L 673.23 316.04
  A 0.87 0.87 0.0 0 1 672.38 316.74
  L 632.97 316.74
  A 0.87 0.87 0.0 0 1 632.10 315.87
  Z"
/>
<path fill="#ffffff" d="
  M 465.12 352.28
  Q 466.83 352.70 465.71 351.34
  Q 456.29 339.86 445.67 329.15
  Q 441.75 325.20 434.44 320.29
  Q 422.13 312.02 407.79 316.33
  A 0.38 0.37 3.8 0 1 407.31 315.97
  L 407.31 307.55
  A 0.63 0.63 0.0 0 1 407.94 306.92
  Q 448.52 307.06 474.77 306.87
  Q 477.58 306.85 479.01 308.99
  Q 487.40 321.50 493.05 329.51
  Q 493.54 330.19 493.15 330.94
  L 458.23 399.00
  A 2.38 2.38 0.0 0 1 456.11 400.30
  L 418.31 400.30
  Q 417.68 400.30 417.58 399.68
  Q 414.91 382.43 413.79 365.17
  A 0.32 0.32 0.0 0 1 414.22 364.84
  Q 426.77 369.56 438.28 362.21
  Q 445.50 357.60 450.74 349.97
  Q 451.48 348.90 452.75 349.21
  L 465.12 352.28
  Z"
/>
<path fill="#ffffff" d="
  M 566.82 352.24
  L 577.23 350.23
  Q 578.86 349.92 579.86 351.24
  C 584.02 356.74 588.77 361.45 595.21 364.27
  Q 606.69 369.31 618.05 364.23
  A 0.68 0.68 0.0 0 1 619.00 364.94
  L 614.24 399.28
  A 1.16 1.16 0.0 0 1 613.09 400.28
  L 570.39 400.28
  A 0.39 0.37 75.0 0 1 570.06 400.08
  L 535.80 331.66
  A 2.13 2.13 0.0 0 1 535.95 329.49
  L 551.07 307.48
  A 1.28 1.27 17.3 0 1 552.12 306.93
  L 624.71 306.93
  Q 625.22 306.93 625.22 307.44
  L 625.22 316.22
  Q 625.22 316.77 624.70 316.61
  Q 607.90 311.51 593.61 322.63
  C 582.86 330.99 575.32 340.03 566.30 351.39
  Q 565.40 352.51 566.82 352.24
  Z"
/>
<path fill="#ffffff" d="
  M 384.78 400.38
  L 377.93 400.38
  A 0.95 0.95 0.0 0 1 377.00 399.61
  L 363.09 327.55
  A 0.95 0.95 0.0 0 1 364.02 326.42
  L 372.26 326.42
  A 0.95 0.95 0.0 0 1 373.20 327.21
  L 385.72 399.27
  A 0.95 0.95 0.0 0 1 384.78 400.38
  Z"
/>
<path fill="#ffffff" d="
  M 409.66 400.27
  L 393.99 400.27
  A 0.64 0.63 85.1 0 1 393.37 399.74
  L 380.72 327.00
  A 0.52 0.52 0.0 0 1 381.23 326.40
  L 399.78 326.40
  A 0.85 0.85 0.0 0 1 400.63 327.27
  Q 400.44 334.74 400.64 342.86
  C 400.74 346.78 401.97 351.90 404.32 355.77
  Q 405.80 358.20 405.88 359.18
  Q 407.45 378.24 410.36 399.46
  Q 410.48 400.27 409.66 400.27
  Z"
/>
<path fill="#ffffff" d="
  M 621.18 399.85
  Q 624.29 378.99 627.06 358.31
  Q 627.23 357.04 629.18 353.65
  Q 630.21 351.86 631.43 347.13
  Q 632.13 344.38 632.22 340.32
  Q 632.39 332.45 632.12 326.87
  A 0.45 0.44 88.8 0 1 632.56 326.40
  L 670.43 326.40
  Q 671.27 326.40 671.10 327.22
  L 656.19 399.83
  A 0.63 0.63 0.0 0 1 655.57 400.34
  L 621.60 400.34
  A 0.43 0.42 -85.9 0 1 621.18 399.85
  Z"
/>
<path fill="#ffffff" d="
  M 465.76 409.08
  Q 482.77 372.79 501.69 337.45
  C 502.93 335.14 506.87 335.44 508.93 335.93
  A 1.16 1.16 0.0 0 1 509.82 337.06
  Q 509.85 377.98 509.81 408.75
  Q 509.81 409.96 510.00 410.70
  Q 510.38 412.24 509.19 411.19
  Q 502.11 404.95 499.28 402.53
  Q 492.51 396.73 488.99 395.75
  C 481.54 393.66 473.49 398.57 469.76 405.17
  Q 468.54 407.31 467.48 413.52
  Q 462.79 440.77 458.96 465.47
  A 0.47 0.47 0.0 0 1 458.18 465.75
  Q 438.43 448.44 422.68 427.35
  Q 422.33 426.87 421.92 426.05
  Q 421.58 425.36 421.45 424.65
  Q 420.14 417.86 419.30 411.53
  A 0.58 0.58 0.0 0 1 419.88 410.88
  Q 449.96 410.89 462.88 410.87
  C 464.45 410.87 465.08 410.54 465.76 409.08
  Z"
/>
<path fill="#ffffff" d="
  M 562.73 410.29
  A 1.39 1.38 -16.8 0 0 563.88 410.90
  L 611.68 410.90
  A 0.67 0.67 0.0 0 1 612.34 411.65
  Q 611.53 418.04 610.60 424.60
  C 610.44 425.73 609.80 426.88 609.18 427.67
  Q 590.33 451.68 569.85 473.59
  Q 569.27 474.22 569.28 473.36
  C 569.31 471.61 569.50 470.10 569.22 468.08
  Q 564.54 433.65 561.38 414.47
  Q 558.91 399.47 544.66 395.83
  Q 539.05 394.39 533.24 398.71
  Q 523.54 405.92 517.49 411.37
  A 0.36 0.35 69.3 0 1 516.90 411.10
  L 516.90 336.75
  Q 516.90 335.98 517.68 335.98
  L 525.29 335.98
  Q 525.89 335.98 526.17 336.51
  Q 544.06 370.66 561.03 407.21
  Q 561.82 408.93 562.73 410.29
  Z"
/>
<path fill="#ffffff" d="
  M 479.38 404.81
  Q 485.86 399.79 492.03 405.55
  Q 501.35 414.25 509.49 420.85
  Q 509.91 421.19 509.91 421.73
  L 509.91 475.20
  Q 509.91 475.67 509.54 475.96
  Q 507.70 477.40 503.72 480.23
  C 501.59 481.74 499.17 482.59 496.48 482.44
  Q 490.27 482.08 484.26 479.05
  Q 474.50 474.13 467.25 467.06
  C 465.89 465.73 466.12 464.73 466.41 462.99
  Q 472.34 426.84 475.23 411.29
  Q 475.94 407.48 479.38 404.81
  Z"
/>
<path fill="#ffffff" d="
  M 522.07 416.54
  Q 524.69 414.50 536.38 404.63
  Q 537.89 403.35 540.02 402.70
  Q 541.78 402.17 543.96 402.77
  Q 550.43 404.56 552.76 409.88
  Q 553.49 411.57 554.86 420.17
  Q 557.32 435.60 561.69 464.43
  Q 561.85 465.48 561.28 466.38
  Q 555.98 474.79 548.02 480.00
  Q 537.64 486.79 525.86 480.69
  Q 520.61 477.97 517.27 475.65
  A 0.94 0.93 17.4 0 1 516.86 474.88
  L 516.86 422.27
  A 2.42 2.42 0.0 0 1 517.52 420.61
  Q 519.38 418.63 522.07 416.54
  Z"
/>
<path fill="#ffffff" d="
  M 398.06 699.52
  A 0.70 0.66 32.2 0 1 397.95 699.09
  Q 398.16 696.18 398.48 694.25
  Q 406.72 645.67 412.34 611.88
  Q 412.70 609.72 412.92 606.77
  Q 416.20 562.15 418.62 524.27
  Q 419.30 513.55 419.55 504.28
  Q 420.78 457.67 421.50 438.80
  Q 421.54 437.84 422.16 438.58
  Q 438.58 458.04 459.90 476.14
  Q 460.58 476.72 461.23 478.00
  Q 469.01 493.57 480.96 503.82
  Q 493.12 514.25 509.13 515.56
  A 0.81 0.81 0.0 0 1 509.88 516.37
  L 509.88 890.72
  A 0.10 0.10 0.0 0 1 509.69 890.78
  Q 509.04 889.87 505.70 884.34
  Q 487.88 854.88 478.77 839.42
  Q 474.55 832.27 468.71 822.13
  Q 442.55 776.77 403.87 709.12
  Q 400.52 703.27 398.06 699.52
  Z"
/>
<path fill="#ffffff" d="
  M 470.41 479.15
  Q 479.58 486.47 490.95 489.03
  Q 501.23 491.34 508.83 485.01
  A 0.59 0.59 0.0 0 1 509.80 485.46
  L 509.80 507.48
  Q 509.80 508.72 508.56 508.59
  C 491.18 506.76 478.75 494.31 470.14 479.75
  Q 469.93 479.38 470.07 479.19
  A 0.24 0.23 -51.5 0 1 470.41 479.15
  Z"
/>
<path fill="#ffffff" d="
  M 556.42 483.01
  C 549.05 498.26 534.33 506.98 517.77 508.72
  A 0.74 0.74 0.0 0 1 516.95 507.98
  L 516.95 484.94
  A 0.54 0.54 0.0 0 1 517.79 484.49
  C 525.61 489.67 535.70 492.40 544.69 488.89
  Q 550.60 486.57 555.75 482.48
  Q 557.25 481.29 556.42 483.01
  Z"
/>
</svg>
