<svg width="1024" height="1024" viewBox="0 0 1024 1024" fill="none" xmlns="http://www.w3.org/2000/svg">
<g clip-path="url(#clip0_627_37)">
<path d="M610.381 437.76C611.054 460.04 611.547 482.637 611.861 505.55C612.127 524.897 612.827 548.19 613.961 575.43C614.341 584.5 614.531 596.32 614.961 606.75C615.021 608.23 615.237 610.054 615.611 612.22C620.604 641.134 629.247 691.557 641.541 763.49C647.954 801.064 656.171 847.757 666.191 903.57C666.644 906.104 668.094 907.15 670.541 906.71C671.08 906.613 671.572 906.343 671.944 905.94C672.316 905.538 672.546 905.026 672.601 904.48C672.781 902.714 672.704 900.877 672.371 898.97C662.417 842.31 654.894 799.514 649.801 770.58C648.421 762.74 646.507 751.75 644.061 737.61C638.267 704.077 634.361 681 632.341 668.38C629.827 652.654 626.677 634.3 622.891 613.32C622.357 610.367 622.041 607.74 621.941 605.44C619.987 561.32 618.744 516.597 618.211 471.27C618.071 459.14 617.451 444.93 617.281 430.89C617.234 426.824 617.464 423.58 617.971 421.16C618.504 418.614 619.024 415.404 619.531 411.53C619.584 411.084 619.837 410.86 620.291 410.86H664.091C664.597 410.86 664.904 410.614 665.011 410.12L682.181 326.47C682.289 325.944 682.598 325.482 683.041 325.18L691.731 319.25C692.236 318.906 692.65 318.443 692.935 317.903C693.221 317.362 693.371 316.761 693.371 316.15V299.78C693.371 298.921 693.028 298.097 692.419 297.489C691.809 296.882 690.983 296.54 690.121 296.54H632.711C632.625 296.54 632.541 296.524 632.462 296.491C632.383 296.458 632.311 296.41 632.251 296.35C632.191 296.29 632.143 296.218 632.11 296.139C632.078 296.06 632.061 295.976 632.061 295.89C632.007 291.15 630.604 286.817 627.851 282.89C626.404 280.824 625.367 279.364 624.741 278.51C624.679 278.425 624.636 278.329 624.612 278.227C624.589 278.125 624.585 278.019 624.603 277.916C624.621 277.812 624.659 277.714 624.715 277.625C624.771 277.537 624.845 277.46 624.931 277.4C627.804 275.4 630.811 272.75 633.951 269.45C648.461 254.16 661.701 238.24 670.091 220.14C674.431 210.78 677.101 201.727 678.101 192.98C679.134 183.914 678.871 173.414 677.311 161.48C674.891 143.02 670.894 124 665.321 104.42C664.241 100.654 662.827 96.5171 661.081 92.0104C659.907 89.0038 657.874 87.5171 654.981 87.5504C652.071 87.5804 650.821 89.4604 648.931 91.9204C611.071 141.16 589.231 169.737 583.411 177.65C581.464 180.297 574.177 190.274 561.551 207.58C560.204 209.434 558.751 210.737 557.191 211.49C552.064 213.977 546.441 214.614 540.321 213.4C537.194 212.78 531.194 211.194 522.321 208.64C516.541 206.98 510.781 207.034 505.041 208.8C498.814 210.714 493.224 212.044 488.271 212.79C482.977 213.59 478.837 213.614 475.851 212.86C471.464 211.76 468.171 209.637 465.971 206.49C452.344 186.984 438.854 168.51 425.501 151.07C411.254 132.464 396.287 113.047 380.601 92.8204C379.841 91.8404 378.784 90.6804 377.431 89.3404C376.064 87.9738 374.677 87.3571 373.271 87.4904C370.917 87.7171 369.284 89.0204 368.371 91.4004C365.657 98.5071 363.081 106.657 360.641 115.85C355.854 133.864 352.534 151.75 350.681 169.51C348.667 188.817 352.081 207.134 360.921 224.46C370.701 243.65 384.951 260.17 400.981 274.49C402.661 276 405.061 276.54 407.161 275.42C408.007 274.974 408.597 274.7 408.931 274.6C410.277 274.18 410.587 274.59 409.861 275.83C406.134 282.13 403.621 286.537 402.321 289.05C401.154 291.29 400.481 293.584 400.301 295.93C400.291 296.088 400.221 296.235 400.106 296.343C399.99 296.451 399.838 296.511 399.681 296.51H345.481C342.974 296.51 341.721 297.764 341.721 300.27V316.19C341.721 316.638 341.83 317.079 342.039 317.474C342.249 317.87 342.551 318.208 342.921 318.46L351.171 324.13C351.402 324.291 351.563 324.538 351.621 324.82L368.091 410.16C368.13 410.363 368.239 410.545 368.4 410.677C368.56 410.808 368.762 410.88 368.971 410.88H411.191C411.484 410.881 411.768 410.986 411.991 411.177C412.215 411.367 412.363 411.631 412.411 411.92C413.151 416.394 413.797 420.167 414.351 423.24C414.817 425.834 414.934 429.614 414.701 434.58C414.161 446.067 413.857 453.457 413.791 456.75C413.277 481.104 412.587 504.104 411.721 525.75C411.441 532.697 409.687 557.28 406.461 599.5C405.947 606.134 405.144 612.747 404.051 619.34C399.117 649.08 396.144 666.84 395.131 672.62C382.064 746.827 368.281 823.367 353.781 902.24C353.314 904.767 354.374 906.307 356.961 906.86C357.027 906.874 357.074 906.884 357.101 906.89C357.461 906.963 357.835 906.944 358.202 906.835C358.568 906.726 358.92 906.529 359.236 906.255C359.553 905.981 359.827 905.637 360.045 905.241C360.262 904.845 360.417 904.407 360.501 903.95L395.581 710.5C395.714 709.774 395.964 709.73 396.331 710.37C431.904 772.584 452.457 808.504 457.991 818.13C461.391 824.057 464.747 829.81 468.061 835.39C484.001 862.27 497.454 884.824 508.421 903.05C509.131 904.24 511.061 907.31 513.051 907.45C517.091 907.75 516.991 905.41 516.991 902.25C516.824 782.664 516.797 654.244 516.911 516.99C516.911 516.197 517.307 515.754 518.101 515.66C533.034 513.954 545.967 507.69 556.901 496.87C575.154 478.817 592.841 459.067 609.961 437.62C609.989 437.582 610.028 437.553 610.073 437.538C610.119 437.524 610.168 437.525 610.214 437.54C610.26 437.555 610.301 437.585 610.331 437.624C610.36 437.664 610.378 437.711 610.381 437.76Z" stroke="#808080" stroke-width="2"/>
<path d="M421.621 182.62C421.927 185.347 421.781 188.37 421.181 191.69C417.127 214.11 412.937 237.003 408.61 260.37C408.597 260.443 408.364 262.007 407.911 265.06C407.894 265.173 407.911 265.289 407.958 265.393C408.005 265.497 408.081 265.585 408.176 265.647C408.272 265.708 408.383 265.74 408.495 265.739C408.608 265.738 408.717 265.704 408.811 265.64C416.544 260.573 422.097 257.097 425.471 255.21C442.104 245.903 462.324 234.763 486.131 221.79C486.431 221.623 486.424 221.467 486.11 221.32C485.337 220.967 484.11 220.813 482.43 220.86C479.97 220.927 478.727 220.96 478.701 220.96C471.811 220.13 466.071 217.61 461.561 212.45C460.367 211.083 458.907 209.167 457.18 206.7C446.467 191.42 433.584 173.887 418.531 154.1C406.064 137.713 391.304 118.59 374.251 96.7301C374.194 96.6586 374.12 96.6035 374.036 96.5703C373.951 96.5372 373.859 96.5272 373.769 96.5415C373.68 96.5558 373.595 96.5938 373.525 96.6515C373.455 96.7093 373.402 96.7847 373.371 96.87C372.631 98.8767 372.761 100.667 373.761 102.24C377.541 108.18 380.567 113.123 382.841 117.07C387.154 124.557 390.067 129.56 391.58 132.08C397.227 141.487 406.804 157.423 420.311 179.89C421.131 181.257 421.567 182.167 421.621 182.62Z" stroke="#808080" stroke-width="2"/>
<path d="M602.801 196.81C602.051 194.03 602.721 191.95 604.191 189.46C614.411 172.154 625.761 152.827 638.241 131.48C642.861 123.59 649.071 112.12 653.981 103.5C655.128 101.487 655.415 99.267 654.842 96.8404C654.82 96.7495 654.773 96.6667 654.706 96.6016C654.639 96.5366 654.555 96.492 654.464 96.4731C654.372 96.4541 654.278 96.4617 654.19 96.4949C654.103 96.5281 654.027 96.5855 653.971 96.6604C649.538 102.634 644.868 108.824 639.962 115.23C612.535 150.984 597.311 170.834 594.291 174.78C589.378 181.2 581.448 192.154 570.501 207.64C567.841 211.407 565.758 213.924 564.251 215.19C558.661 219.88 550.891 221.65 543.751 221.33C542.645 221.277 542.581 221.51 543.561 222.03C561.055 231.29 579.421 241.21 598.661 251.79C602.475 253.89 606.091 256.034 609.511 258.22C611.578 259.54 615.111 261.834 620.111 265.1C620.711 265.487 620.931 265.334 620.771 264.64C619.525 259.294 618.265 254.334 616.991 249.76C614.705 241.487 613.351 236.55 612.931 234.95C609.598 222.224 606.221 209.51 602.801 196.81Z" stroke="#808080" stroke-width="2"/>
<path d="M659.98 112.581C659.754 111.801 659.58 111.204 659.46 110.791C659.12 109.611 658.684 109.571 658.15 110.671C656.884 113.258 655.427 115.964 653.78 118.791C639.6 143.144 625.364 167.468 611.07 191.761C610.23 193.191 609.37 194.211 609.84 195.941C614.694 213.794 620.84 236.591 628.28 264.331C628.295 264.381 628.322 264.427 628.359 264.463C628.396 264.5 628.443 264.526 628.493 264.539C628.544 264.552 628.597 264.552 628.647 264.538C628.697 264.524 628.743 264.498 628.78 264.461C642.18 250.861 655.04 235.381 663.26 218.541C668.774 207.241 671.624 195.501 671.81 183.321C671.884 178.381 671.504 172.384 670.67 165.331C668.524 147.151 664.96 129.568 659.98 112.581Z" stroke="#808080" stroke-width="2"/>
<path d="M368.34 113.961C362.967 133.341 359.44 151.684 357.76 168.991C356.32 183.801 357.57 199.541 363.45 212.911C371.89 232.111 384.054 248.954 399.94 263.441C400.003 263.5 400.08 263.541 400.164 263.559C400.248 263.578 400.335 263.574 400.417 263.547C400.499 263.521 400.572 263.473 400.629 263.408C400.686 263.344 400.724 263.265 400.74 263.181C405.954 236.648 410.344 213.128 413.91 192.621C414.417 189.694 414.674 187.144 414.68 184.971C414.687 184.638 414.604 184.328 414.43 184.041L370.62 111.601C369.974 110.528 369.437 110.581 369.01 111.761C368.857 112.174 368.634 112.908 368.34 113.961Z" stroke="#808080" stroke-width="2"/>
<path d="M546.6 297.14C547.025 296.754 547.578 296.54 548.15 296.54H624.78C624.875 296.541 624.969 296.521 625.057 296.484C625.144 296.446 625.222 296.39 625.287 296.321C625.352 296.252 625.401 296.169 625.433 296.08C625.465 295.99 625.477 295.895 625.47 295.8C625.164 291.94 623.894 288.624 621.66 285.85C612.754 274.77 607.197 267.83 604.99 265.03C603.33 262.924 601.12 261.13 598.36 259.65C574.06 246.564 549.65 233.57 525.13 220.67C523.197 219.65 520.754 218.484 517.8 217.17C517.703 217.127 517.595 217.109 517.489 217.117C517.382 217.126 517.279 217.161 517.189 217.22C517.1 217.279 517.027 217.359 516.976 217.453C516.926 217.548 516.9 217.653 516.9 217.76V322.47C516.9 322.728 517.003 322.974 517.184 323.156C517.366 323.338 517.613 323.44 517.87 323.44H526.5C527.394 323.44 528.097 323.077 528.61 322.35C535.61 312.417 540.294 305.61 542.66 301.93C543.88 300.03 545.194 298.434 546.6 297.14Z" stroke="#808080" stroke-width="2"/>
<path d="M480.381 296.711C482.351 296.761 482.821 297.291 484.081 298.991C487.227 303.264 492.767 311.217 500.701 322.851C500.79 322.983 500.911 323.091 501.054 323.166C501.197 323.241 501.357 323.281 501.521 323.281H509.311C509.451 323.281 509.586 323.225 509.685 323.126C509.785 323.026 509.841 322.891 509.841 322.751V217.881C509.839 217.751 509.804 217.624 509.739 217.512C509.674 217.4 509.581 217.307 509.47 217.241C509.358 217.176 509.231 217.141 509.102 217.139C508.972 217.137 508.844 217.169 508.731 217.231C482.737 231.524 456.924 245.807 431.291 260.081C428.621 261.561 426.691 262.241 424.981 264.971C417.981 276.131 412.654 285.051 409.001 291.731C408.281 293.044 407.744 294.441 407.391 295.921C407.371 296.002 407.37 296.087 407.388 296.169C407.406 296.251 407.442 296.327 407.494 296.393C407.546 296.458 407.613 296.511 407.688 296.547C407.764 296.583 407.847 296.602 407.931 296.601C447.664 296.474 471.814 296.511 480.381 296.711Z" stroke="#808080" stroke-width="2"/>
<path d="M400.35 307.58C400.35 307.381 400.271 307.19 400.13 307.05C399.99 306.909 399.799 306.83 399.6 306.83H360.22C360.109 306.83 360 306.854 359.9 306.9C359.799 306.947 359.711 307.016 359.64 307.101C359.569 307.186 359.518 307.285 359.491 307.392C359.463 307.5 359.459 307.611 359.48 307.72L361.09 316.06C361.123 316.232 361.215 316.387 361.35 316.499C361.485 316.61 361.655 316.671 361.83 316.67H399.6C399.799 316.67 399.99 316.591 400.13 316.45C400.271 316.31 400.35 316.119 400.35 315.92V307.58Z" stroke="#808080" stroke-width="2"/>
<path d="M632.102 315.87C632.102 315.984 632.124 316.097 632.168 316.203C632.212 316.309 632.276 316.404 632.356 316.485C632.437 316.566 632.533 316.63 632.639 316.674C632.744 316.718 632.857 316.74 632.972 316.74H672.382C672.582 316.739 672.776 316.669 672.931 316.542C673.086 316.414 673.192 316.237 673.232 316.04L674.932 307.79C674.957 307.663 674.954 307.533 674.922 307.407C674.89 307.282 674.831 307.165 674.749 307.066C674.666 306.966 674.563 306.886 674.446 306.831C674.329 306.777 674.201 306.749 674.072 306.75H632.972C632.741 306.75 632.52 306.842 632.356 307.005C632.193 307.168 632.102 307.389 632.102 307.62V315.87Z" stroke="#808080" stroke-width="2"/>
<path d="M465.121 352.281L452.751 349.211C451.904 349.005 451.234 349.258 450.741 349.971C447.247 355.058 443.094 359.138 438.281 362.211C430.607 367.111 422.587 367.988 414.221 364.841C414.17 364.822 414.115 364.817 414.062 364.825C414.008 364.833 413.958 364.854 413.915 364.887C413.872 364.92 413.838 364.964 413.816 365.013C413.794 365.063 413.786 365.117 413.791 365.171C414.537 376.678 415.801 388.181 417.581 399.681C417.647 400.095 417.891 400.301 418.311 400.301H456.111C456.55 400.301 456.98 400.18 457.354 399.95C457.728 399.721 458.032 399.392 458.231 399.001L493.151 330.941C493.411 330.441 493.377 329.965 493.051 329.511C489.284 324.171 484.604 317.331 479.011 308.991C478.057 307.565 476.644 306.858 474.771 306.871C457.271 306.998 434.994 307.015 407.941 306.921C407.774 306.921 407.613 306.988 407.495 307.106C407.377 307.224 407.311 307.384 407.311 307.551V315.971C407.309 316.03 407.321 316.088 407.346 316.141C407.371 316.194 407.408 316.239 407.455 316.274C407.502 316.31 407.557 316.333 407.615 316.343C407.673 316.353 407.734 316.349 407.791 316.331C417.351 313.458 426.234 314.778 434.441 320.291C439.314 323.565 443.057 326.518 445.671 329.151C452.751 336.291 459.431 343.688 465.711 351.341C466.457 352.248 466.261 352.561 465.121 352.281Z" stroke="#808080" stroke-width="2"/>
<path d="M566.82 352.24C565.874 352.42 565.7 352.136 566.3 351.39C575.32 340.03 582.86 330.99 593.61 322.63C603.137 315.216 613.5 313.21 624.7 316.61C625.047 316.716 625.22 316.586 625.22 316.22V307.44C625.22 307.1 625.05 306.93 624.71 306.93H552.12C551.913 306.93 551.709 306.98 551.526 307.076C551.344 307.172 551.187 307.31 551.07 307.48L535.95 329.49C535.733 329.805 535.604 330.172 535.577 330.554C535.551 330.936 535.628 331.318 535.8 331.66L570.06 400.08C570.094 400.14 570.142 400.191 570.2 400.226C570.258 400.261 570.324 400.28 570.39 400.28H613.09C613.37 400.28 613.641 400.179 613.852 399.995C614.064 399.811 614.202 399.557 614.24 399.28L619 364.94C619.016 364.82 618.999 364.698 618.953 364.587C618.906 364.476 618.83 364.379 618.733 364.307C618.636 364.234 618.522 364.189 618.402 364.176C618.282 364.162 618.161 364.181 618.05 364.23C610.477 367.616 602.864 367.63 595.21 364.27C588.77 361.45 584.02 356.74 579.86 351.24C579.194 350.36 578.317 350.023 577.23 350.23L566.82 352.24Z" stroke="#808080" stroke-width="2"/>
<path d="M384.781 400.38C384.92 400.38 385.057 400.351 385.183 400.293C385.309 400.235 385.42 400.15 385.51 400.044C385.6 399.938 385.665 399.814 385.701 399.68C385.738 399.547 385.745 399.407 385.721 399.27L373.201 327.21C373.164 326.988 373.048 326.787 372.876 326.643C372.704 326.498 372.486 326.419 372.261 326.42H364.021C363.882 326.42 363.744 326.452 363.617 326.511C363.491 326.571 363.38 326.658 363.291 326.766C363.202 326.874 363.138 327 363.104 327.136C363.069 327.271 363.065 327.413 363.091 327.55L377.001 399.61C377.043 399.826 377.159 400.021 377.328 400.162C377.498 400.302 377.711 400.379 377.931 400.38H384.781Z" stroke="#808080" stroke-width="2"/>
<path d="M409.661 400.27C410.208 400.27 410.441 400 410.361 399.46C408.421 385.314 406.928 371.887 405.881 359.18C405.828 358.527 405.308 357.39 404.321 355.77C401.971 351.9 400.741 346.78 400.641 342.86C400.508 337.447 400.504 332.25 400.631 327.27C400.634 327.157 400.614 327.044 400.572 326.939C400.531 326.834 400.468 326.737 400.389 326.656C400.31 326.575 400.215 326.511 400.111 326.467C400.007 326.423 399.894 326.4 399.781 326.4H381.231C381.156 326.401 381.083 326.418 381.015 326.449C380.947 326.481 380.887 326.527 380.839 326.584C380.79 326.641 380.755 326.707 380.734 326.779C380.714 326.851 380.71 326.927 380.721 327L393.371 399.74C393.397 399.888 393.473 400.023 393.586 400.12C393.7 400.217 393.843 400.27 393.991 400.27H409.661Z" stroke="#808080" stroke-width="2"/>
<path d="M621.18 399.85C621.171 399.912 621.176 399.974 621.193 400.034C621.21 400.093 621.24 400.148 621.28 400.195C621.32 400.241 621.369 400.278 621.424 400.303C621.479 400.329 621.539 400.341 621.6 400.34H655.57C655.717 400.341 655.859 400.29 655.972 400.197C656.085 400.104 656.162 399.974 656.19 399.83L671.1 327.22C671.213 326.674 670.99 326.4 670.43 326.4H632.56C632.501 326.4 632.442 326.413 632.387 326.436C632.332 326.46 632.283 326.495 632.242 326.539C632.201 326.583 632.169 326.635 632.148 326.692C632.127 326.749 632.117 326.81 632.12 326.87C632.3 330.59 632.333 335.074 632.22 340.32C632.16 343.027 631.897 345.297 631.43 347.13C630.617 350.284 629.867 352.457 629.18 353.65C627.88 355.91 627.173 357.464 627.06 358.31C625.213 372.097 623.253 385.944 621.18 399.85Z" stroke="#808080" stroke-width="2"/>
<path d="M465.761 409.079C465.081 410.539 464.451 410.869 462.881 410.869C454.268 410.883 439.934 410.886 419.881 410.879C419.799 410.879 419.717 410.896 419.642 410.929C419.566 410.963 419.499 411.012 419.444 411.073C419.389 411.135 419.348 411.207 419.323 411.286C419.299 411.365 419.291 411.448 419.301 411.529C419.861 415.749 420.578 420.123 421.451 424.649C421.538 425.123 421.694 425.589 421.921 426.049C422.194 426.596 422.448 427.029 422.681 427.349C433.181 441.409 445.014 454.209 458.181 465.749C458.244 465.806 458.322 465.845 458.405 465.862C458.489 465.878 458.575 465.872 458.655 465.843C458.735 465.814 458.806 465.764 458.86 465.699C458.914 465.633 458.949 465.554 458.961 465.469C461.514 449.003 464.354 431.686 467.481 413.519C468.188 409.379 468.948 406.596 469.761 405.169C473.491 398.569 481.541 393.659 488.991 395.749C491.338 396.403 494.768 398.663 499.281 402.529C501.168 404.143 504.471 407.029 509.191 411.189C509.984 411.889 510.254 411.726 510.001 410.699C509.874 410.206 509.811 409.556 509.811 408.749C509.838 388.236 509.841 364.339 509.821 337.059C509.822 336.798 509.734 336.545 509.572 336.34C509.411 336.135 509.185 335.99 508.931 335.929C506.871 335.439 502.931 335.139 501.691 337.449C489.078 361.009 477.101 384.886 465.761 409.079Z" stroke="#808080" stroke-width="2"/>
<path d="M562.73 410.29C562.124 409.384 561.557 408.357 561.03 407.21C549.717 382.844 538.097 359.277 526.17 336.51C525.984 336.157 525.69 335.98 525.29 335.98H517.68C517.16 335.98 516.9 336.237 516.9 336.75V411.1C516.901 411.17 516.922 411.238 516.959 411.296C516.997 411.355 517.051 411.401 517.113 411.43C517.175 411.458 517.244 411.468 517.311 411.457C517.378 411.447 517.44 411.417 517.49 411.37C521.524 407.737 526.774 403.517 533.24 398.71C537.114 395.83 540.92 394.87 544.66 395.83C554.16 398.257 559.734 404.47 561.38 414.47C563.487 427.257 566.1 445.127 569.22 468.08C569.5 470.1 569.31 471.61 569.28 473.36C569.274 473.934 569.464 474.01 569.85 473.59C583.504 458.984 596.614 443.677 609.18 427.67C609.8 426.88 610.44 425.73 610.6 424.6C611.22 420.227 611.8 415.91 612.34 411.65C612.352 411.557 612.343 411.462 612.315 411.372C612.287 411.282 612.24 411.199 612.178 411.128C612.116 411.057 612.039 411 611.954 410.961C611.868 410.922 611.775 410.901 611.68 410.9H563.88C563.653 410.9 563.429 410.845 563.228 410.738C563.028 410.632 562.857 410.478 562.73 410.29Z" stroke="#808080" stroke-width="2"/>
<path d="M479.381 404.81C477.087 406.59 475.704 408.75 475.231 411.29C473.304 421.657 470.364 438.89 466.411 462.99C466.121 464.73 465.891 465.73 467.251 467.06C472.084 471.774 477.754 475.77 484.261 479.05C488.267 481.07 492.341 482.2 496.481 482.44C499.171 482.59 501.591 481.74 503.721 480.23C506.374 478.344 508.314 476.92 509.541 475.96C509.787 475.767 509.911 475.514 509.911 475.2V421.73C509.911 421.37 509.771 421.077 509.491 420.85C504.064 416.45 498.244 411.35 492.031 405.55C487.917 401.71 483.701 401.464 479.381 404.81Z" stroke="#808080" stroke-width="2"/>
<path d="M522.071 416.54C520.278 417.933 518.761 419.29 517.521 420.61C517.098 421.059 516.862 421.652 516.861 422.27V474.88C516.862 475.031 516.899 475.18 516.971 475.314C517.042 475.449 517.145 475.564 517.271 475.65C519.498 477.196 522.361 478.876 525.861 480.69C533.715 484.756 541.101 484.526 548.021 480C553.328 476.526 557.748 471.986 561.281 466.38C561.661 465.78 561.798 465.13 561.691 464.43C558.778 445.21 556.501 430.456 554.861 420.17C553.948 414.436 553.248 411.006 552.761 409.88C551.208 406.333 548.275 403.963 543.961 402.77C542.508 402.37 541.195 402.346 540.021 402.7C538.601 403.133 537.388 403.776 536.381 404.63C528.588 411.21 523.818 415.18 522.071 416.54Z" stroke="#808080" stroke-width="2"/>
<path d="M398.06 699.52C399.7 702.02 401.636 705.22 403.87 709.12C429.656 754.22 451.27 791.89 468.71 822.13C472.603 828.89 475.956 834.653 478.77 839.42C484.843 849.727 493.82 864.7 505.7 884.34C507.926 888.027 509.256 890.173 509.69 890.78C509.699 890.803 509.717 890.822 509.74 890.832C509.763 890.843 509.788 890.845 509.812 890.837C509.836 890.83 509.856 890.813 509.869 890.792C509.881 890.77 509.885 890.744 509.88 890.72V516.37C509.88 516.165 509.803 515.968 509.664 515.817C509.525 515.667 509.334 515.575 509.13 515.56C498.456 514.687 489.066 510.773 480.96 503.82C472.993 496.987 466.416 488.38 461.23 478C460.796 477.147 460.353 476.527 459.9 476.14C445.686 464.073 433.106 451.553 422.16 438.58C421.746 438.087 421.526 438.16 421.5 438.8C421.02 451.38 420.37 473.207 419.55 504.28C419.383 510.46 419.073 517.123 418.62 524.27C417.006 549.523 415.106 577.023 412.92 606.77C412.773 608.737 412.58 610.44 412.34 611.88C408.593 634.407 403.973 661.863 398.48 694.25C398.266 695.537 398.09 697.15 397.95 699.09C397.937 699.239 397.975 699.39 398.06 699.52Z" stroke="#808080" stroke-width="2"/>
<path d="M470.412 479.151C470.388 479.13 470.36 479.115 470.33 479.106C470.3 479.096 470.268 479.094 470.236 479.097C470.204 479.101 470.173 479.111 470.145 479.127C470.117 479.144 470.092 479.165 470.072 479.191C469.978 479.318 470.002 479.505 470.142 479.751C478.752 494.311 491.182 506.761 508.562 508.591C509.388 508.678 509.802 508.308 509.802 507.481V485.461C509.801 485.349 509.769 485.239 509.709 485.145C509.648 485.05 509.562 484.975 509.46 484.927C509.358 484.88 509.245 484.863 509.134 484.878C509.022 484.893 508.917 484.939 508.832 485.011C503.765 489.231 497.805 490.571 490.952 489.031C483.372 487.325 476.525 484.031 470.412 479.151Z" stroke="#808080" stroke-width="2"/>
<path d="M556.421 483.011C556.974 481.864 556.751 481.687 555.751 482.481C552.318 485.207 548.631 487.344 544.691 488.891C535.701 492.401 525.611 489.671 517.791 484.491C517.71 484.436 517.615 484.405 517.517 484.4C517.42 484.396 517.322 484.418 517.236 484.464C517.15 484.51 517.078 484.579 517.028 484.663C516.977 484.747 516.951 484.843 516.951 484.941V507.981C516.951 508.085 516.972 508.188 517.014 508.284C517.056 508.379 517.118 508.465 517.195 508.534C517.273 508.604 517.364 508.657 517.463 508.689C517.563 508.721 517.668 508.732 517.771 508.721C534.331 506.981 549.051 498.261 556.421 483.011Z" stroke="#808080" stroke-width="2"/>
<path d="M1024 0V1024H0V0H1024Z" fill="white"/>
<path d="M610.381 437.77C610.378 437.721 610.36 437.673 610.331 437.634C610.301 437.594 610.26 437.565 610.214 437.55C610.168 437.534 610.119 437.534 610.073 437.548C610.028 437.563 609.989 437.591 609.961 437.63C592.841 459.077 575.154 478.827 556.901 496.88C545.967 507.7 533.034 513.963 518.101 515.67C517.307 515.763 516 516.216 516 517.01C515.887 654.263 516.824 782.674 516.991 902.26C516.991 905.42 517.091 907.76 513.051 907.46C511.061 907.32 510 904.51 510 904.51C510 904.51 509.5 864.01 502.5 847.01C477.404 786.062 441.073 771.723 405.5 709.51C405.133 708.87 398.084 698.374 397.951 699.1L360.501 903.96C360.417 904.417 360.262 904.855 360.045 905.251C359.827 905.646 359.553 905.991 359.236 906.265C358.92 906.538 358.568 906.735 358.202 906.844C357.835 906.954 357.461 906.973 357.101 906.9C357.074 906.894 357.027 906.884 356.961 906.87C354.374 906.317 353.314 904.777 353.781 902.25C368.281 823.377 382.064 746.837 395.131 672.63C396.144 666.85 399.117 649.09 404.051 619.35C405.144 612.757 405.947 606.144 406.461 599.51C409.687 557.29 411.441 532.707 411.721 525.76C412.587 504.114 413.277 481.114 413.791 456.76C413.857 453.467 414.161 446.077 414.701 434.59C414.934 429.624 414.817 425.844 414.351 423.25C413.797 420.177 413.151 416.404 412.411 411.93C412.363 411.64 412.215 411.377 411.991 411.187C411.768 410.996 411.484 410.891 411.191 410.89H368.971C368.762 410.89 368.56 410.818 368.4 410.686C368.239 410.555 368.13 410.373 368.091 410.17L351.621 324.83C351.563 324.548 351.402 324.301 351.171 324.14L342.921 318.47C342.551 318.218 342.249 317.879 342.039 317.484C341.83 317.088 341.721 316.648 341.721 316.2V300.28C341.721 297.774 342.974 296.52 345.481 296.52H399.681C399.838 296.521 399.99 296.461 400.106 296.353C400.221 296.245 400.291 296.098 400.301 295.94C400.481 293.594 401.154 291.3 402.321 289.06C403.621 286.547 406.134 282.14 409.861 275.84C410.587 274.6 410.277 274.19 408.931 274.61C408.597 274.71 408.007 274.984 407.161 275.43C405.061 276.55 402.661 276.01 400.981 274.5C384.951 260.18 370.701 243.66 360.921 224.47C352.081 207.144 348.667 188.827 350.681 169.52C352.534 151.76 355.854 133.874 360.641 115.86C363.081 106.667 365.657 98.5169 368.371 91.4102C369.284 89.0302 370.917 87.7269 373.271 87.5002C374.677 87.3669 376.064 87.9835 377.431 89.3502C378.784 90.6902 379.841 91.8502 380.601 92.8302C396.287 113.057 411.254 132.474 425.501 151.08C438.854 168.52 452.344 186.994 465.971 206.5C468.171 209.647 471.464 211.77 475.851 212.87C478.837 213.624 482.977 213.6 488.271 212.8C493.224 212.054 498.814 210.724 505.041 208.81C510.781 207.044 516.541 206.99 522.321 208.65C531.194 211.204 537.194 212.79 540.321 213.41C546.441 214.624 552.064 213.987 557.191 211.5C558.751 210.747 560.204 209.444 561.551 207.59C574.177 190.284 581.464 180.307 583.411 177.66C589.231 169.747 611.071 141.17 648.931 91.9302C650.821 89.4702 652.071 87.5902 654.981 87.5602C657.874 87.5269 659.907 89.0135 661.081 92.0202C662.827 96.5269 664.241 100.664 665.321 104.43C670.894 124.01 674.891 143.03 677.311 161.49C678.871 173.424 679.134 183.924 678.101 192.99C677.101 201.737 674.431 210.79 670.091 220.15C661.701 238.25 648.461 254.17 633.951 269.46C630.811 272.76 627.804 275.41 624.931 277.41C624.845 277.47 624.771 277.546 624.715 277.635C624.659 277.723 624.621 277.822 624.603 277.925C624.585 278.029 624.589 278.135 624.612 278.237C624.636 278.339 624.679 278.435 624.741 278.52C625.367 279.374 626.404 280.834 627.851 282.9C630.604 286.827 632.007 291.16 632.061 295.9C632.061 295.986 632.078 296.07 632.11 296.149C632.143 296.228 632.191 296.299 632.251 296.36C632.311 296.42 632.383 296.468 632.462 296.501C632.541 296.533 632.625 296.55 632.711 296.55H690.121C690.983 296.55 691.809 296.892 692.419 297.499C693.028 298.107 693.371 298.931 693.371 299.79V316.16C693.371 316.771 693.221 317.372 692.935 317.912C692.65 318.453 692.236 318.915 691.731 319.26L683.041 325.19C682.598 325.491 682.289 325.954 682.181 326.48L665.011 410.13C664.904 410.624 664.597 410.87 664.091 410.87H620.291C619.837 410.87 619.584 411.094 619.531 411.54C619.024 415.414 618.504 418.624 617.971 421.17C617.464 423.59 617.234 426.834 617.281 430.9C617.451 444.94 618.071 459.15 618.211 471.28C618.744 516.607 619.987 561.33 621.941 605.45C622.041 607.75 622.357 610.377 622.891 613.33C626.677 634.31 629.827 652.664 632.341 668.39C634.361 681.01 638.267 704.087 644.061 737.62C646.507 751.76 648.421 762.75 649.801 770.59C654.894 799.524 662.417 842.32 672.371 898.98C672.704 900.887 672.781 902.724 672.601 904.49C672.546 905.035 672.316 905.548 671.944 905.95C671.572 906.353 671.08 906.623 670.541 906.72C668.094 907.16 666.644 906.114 666.191 903.58C656.171 847.767 647.954 801.074 641.541 763.5C629.247 691.567 620.604 641.143 615.611 612.23C615.237 610.063 615.021 608.24 614.961 606.76C614.531 596.33 614.341 584.51 613.961 575.44C612.827 548.2 612.127 524.907 611.861 505.56C611.547 482.647 611.054 460.05 610.381 437.77ZM421.621 182.63C421.927 185.357 421.781 188.38 421.181 191.7C417.127 214.12 412.937 237.014 408.611 260.38C408.597 260.454 408.364 262.017 407.911 265.07C407.894 265.183 407.911 265.299 407.958 265.403C408.005 265.507 408.081 265.595 408.177 265.657C408.272 265.718 408.383 265.751 408.495 265.749C408.608 265.748 408.717 265.714 408.811 265.65C416.544 260.584 422.097 257.107 425.471 255.22C442.104 245.914 462.324 234.774 486.131 221.8C486.431 221.634 486.424 221.477 486.111 221.33C485.337 220.977 484.111 220.824 482.431 220.87C479.971 220.937 478.727 220.97 478.701 220.97C471.811 220.14 466.071 217.62 461.561 212.46C460.367 211.094 458.907 209.177 457.181 206.71C446.467 191.43 433.584 173.897 418.531 154.11C406.064 137.724 391.304 118.6 374.251 96.7402C374.195 96.6688 374.12 96.6136 374.036 96.5805C373.951 96.5473 373.859 96.5374 373.77 96.5516C373.68 96.5659 373.596 96.6039 373.525 96.6617C373.455 96.7194 373.402 96.7949 373.371 96.8802C372.631 98.8869 372.761 100.677 373.761 102.25C377.541 108.19 380.567 113.134 382.841 117.08C387.154 124.567 390.067 129.57 391.581 132.09C397.227 141.497 406.804 157.434 420.311 179.9C421.131 181.267 421.567 182.177 421.621 182.63ZM602.801 196.82C602.051 194.04 602.721 191.96 604.191 189.47C614.411 172.164 625.761 152.837 638.241 131.49C642.861 123.6 649.071 112.13 653.981 103.51C655.127 101.497 655.414 99.2769 654.841 96.8502C654.819 96.7594 654.772 96.6766 654.705 96.6115C654.639 96.5464 654.554 96.5018 654.463 96.4829C654.372 96.464 654.277 96.4716 654.19 96.5048C654.102 96.5379 654.026 96.5953 653.971 96.6702C649.537 102.644 644.867 108.834 639.961 115.24C612.534 150.994 597.311 170.844 594.291 174.79C589.377 181.21 581.447 192.164 570.501 207.65C567.841 211.417 565.757 213.934 564.251 215.2C558.661 219.89 550.891 221.66 543.751 221.34C542.644 221.287 542.581 221.52 543.561 222.04C561.054 231.3 579.421 241.22 598.661 251.8C602.474 253.9 606.091 256.044 609.511 258.23C611.577 259.55 615.111 261.844 620.111 265.11C620.711 265.497 620.931 265.344 620.771 264.65C619.524 259.304 618.264 254.344 616.991 249.77C614.704 241.497 613.351 236.56 612.931 234.96C609.597 222.234 606.221 209.52 602.801 196.82ZM659.981 112.59C659.754 111.81 659.581 111.214 659.461 110.8C659.121 109.62 658.684 109.58 658.151 110.68C656.884 113.267 655.427 115.974 653.781 118.8C639.601 143.154 625.364 167.477 611.071 191.77C610.231 193.2 609.371 194.22 609.841 195.95C614.694 213.804 620.841 236.6 628.281 264.34C628.295 264.39 628.322 264.436 628.36 264.472C628.397 264.509 628.443 264.535 628.494 264.548C628.544 264.561 628.597 264.561 628.647 264.547C628.698 264.534 628.744 264.507 628.781 264.47C642.181 250.87 655.041 235.39 663.261 218.55C668.774 207.25 671.624 195.51 671.811 183.33C671.884 178.39 671.504 172.394 670.671 165.34C668.524 147.16 664.961 129.577 659.981 112.59ZM368.341 113.97C362.967 133.35 359.441 151.694 357.761 169C356.321 183.81 357.571 199.55 363.451 212.92C371.891 232.12 384.054 248.964 399.941 263.45C400.003 263.509 400.081 263.55 400.165 263.569C400.248 263.587 400.336 263.583 400.418 263.557C400.499 263.53 400.572 263.482 400.629 263.418C400.686 263.353 400.725 263.275 400.741 263.19C405.954 236.657 410.344 213.137 413.911 192.63C414.417 189.704 414.674 187.154 414.681 184.98C414.687 184.647 414.604 184.337 414.431 184.05L370.621 111.61C369.974 110.537 369.437 110.59 369.011 111.77C368.857 112.184 368.634 112.917 368.341 113.97ZM546.601 297.15C547.026 296.764 547.578 296.55 548.151 296.55H624.781C624.876 296.55 624.97 296.531 625.057 296.493C625.144 296.456 625.222 296.4 625.287 296.331C625.352 296.261 625.402 296.179 625.433 296.09C625.465 296 625.478 295.905 625.471 295.81C625.164 291.95 623.894 288.634 621.661 285.86C612.754 274.78 607.197 267.84 604.991 265.04C603.331 262.934 601.121 261.14 598.361 259.66C574.061 246.574 549.651 233.58 525.131 220.68C523.197 219.66 520.754 218.494 517.801 217.18C517.703 217.137 517.596 217.118 517.489 217.127C517.382 217.136 517.279 217.171 517.19 217.23C517.1 217.288 517.027 217.369 516.976 217.463C516.926 217.558 516.9 217.663 516.901 217.77V322.48C516.901 322.737 517.003 322.984 517.185 323.166C517.367 323.348 517.613 323.45 517.871 323.45H526.501C527.394 323.45 528.097 323.087 528.611 322.36C535.611 312.427 540.294 305.62 542.661 301.94C543.881 300.04 545.194 298.444 546.601 297.15ZM480.381 296.72C482.351 296.77 482.821 297.3 484.081 299C487.227 303.274 492.767 311.227 500.701 322.86C500.79 322.993 500.911 323.101 501.054 323.176C501.197 323.251 501.357 323.29 501.521 323.29H509.311C509.451 323.29 509.586 323.234 509.685 323.135C509.785 323.036 509.841 322.901 509.841 322.76V217.89C509.839 217.761 509.804 217.634 509.739 217.522C509.674 217.41 509.581 217.316 509.47 217.251C509.358 217.185 509.231 217.15 509.102 217.148C508.972 217.146 508.844 217.178 508.731 217.24C482.737 231.534 456.924 245.817 431.291 260.09C428.621 261.57 426.691 262.25 424.981 264.98C417.981 276.14 412.654 285.06 409.001 291.74C408.281 293.054 407.744 294.45 407.391 295.93C407.371 296.012 407.37 296.096 407.388 296.178C407.406 296.26 407.442 296.337 407.494 296.402C407.546 296.468 407.613 296.521 407.688 296.557C407.764 296.593 407.847 296.611 407.931 296.61C447.664 296.484 471.814 296.52 480.381 296.72ZM400.351 307.59C400.351 307.391 400.272 307.201 400.131 307.06C399.99 306.919 399.8 306.84 399.601 306.84H360.221C360.11 306.84 360.001 306.864 359.9 306.911C359.8 306.957 359.712 307.026 359.641 307.111C359.57 307.196 359.519 307.295 359.491 307.403C359.464 307.51 359.46 307.622 359.481 307.73L361.091 316.07C361.123 316.242 363.091 327.56 363.091 327.56L385.182 400.293L456.111 400.31C456.111 400.31 423 369.5 413.5 364.5C412.159 363.794 411.514 365.163 410.151 364.5C408.871 363.877 407.5 362 407.5 362L405.881 359.181C405.881 359.181 404.306 357.096 403.5 355.771C400.773 351.283 400.641 342.861 400.641 342.861C400.84 342.861 400.111 326.477 400.111 326.477C400.111 326.477 400.351 307.789 400.351 307.59ZM632.101 315.88C632.101 315.994 632.123 316.108 632.167 316.213C632.211 316.319 632.275 316.415 632.355 316.495C632.436 316.576 632.532 316.64 632.638 316.684C632.743 316.728 632.856 316.75 632.971 316.75H672.381C672.581 316.749 672.776 316.679 672.931 316.552C673.085 316.424 673.191 316.247 673.231 316.05L674.931 307.8C674.956 307.673 674.953 307.543 674.921 307.417C674.889 307.292 674.83 307.175 674.748 307.076C674.666 306.976 674.562 306.896 674.445 306.842C674.328 306.787 674.2 306.759 674.071 306.76H632.971C632.74 306.76 632.519 306.852 632.355 307.015C632.192 307.178 632.101 307.399 632.101 307.63V315.88ZM566.821 352.25C565.874 352.43 565.701 352.147 566.301 351.4C575.321 340.04 582.861 331 593.611 322.64C603.137 315.227 613.501 313.22 624.701 316.62C625.047 316.727 625.221 316.597 625.221 316.23V307.45C625.221 307.11 625.051 306.94 624.711 306.94H552.121C551.914 306.94 551.71 306.99 551.527 307.086C551.344 307.182 551.187 307.321 551.071 307.49L535.951 329.5C535.733 329.815 535.604 330.183 535.578 330.565C535.551 330.946 535.628 331.328 535.801 331.67L570.061 400.09C570.094 400.151 570.143 400.201 570.201 400.237C570.259 400.272 570.324 400.29 570.391 400.29H613.091C613.371 400.29 613.642 400.189 613.853 400.006C614.064 399.822 614.202 399.568 614.241 399.29L619.001 364.95C619.016 364.83 619 364.709 618.953 364.597C618.906 364.486 618.83 364.389 618.734 364.317C618.637 364.245 618.523 364.2 618.403 364.186C618.283 364.173 618.161 364.191 618.051 364.24C610.477 367.627 602.864 367.64 595.211 364.28C588.771 361.46 584.021 356.75 579.861 351.25C579.194 350.37 578.317 350.034 577.231 350.24L566.821 352.25ZM621.181 399.86C621.172 399.922 621.176 399.984 621.194 400.044C621.211 400.103 621.24 400.158 621.28 400.204C621.32 400.251 621.369 400.288 621.425 400.313C621.48 400.338 621.54 400.351 621.601 400.35H655.571C655.717 400.351 655.859 400.3 655.972 400.207C656.086 400.114 656.163 399.984 656.191 399.84L671.101 327.23C671.214 326.684 670.991 326.41 670.431 326.41H632.561C632.501 326.41 632.442 326.422 632.388 326.446C632.333 326.47 632.283 326.505 632.242 326.549C632.201 326.593 632.169 326.645 632.148 326.702C632.127 326.759 632.118 326.819 632.121 326.88C632.301 330.6 632.334 335.084 632.221 340.33C632.161 343.037 631.897 345.307 631.431 347.14C630.617 350.294 629.867 352.467 629.181 353.66C627.881 355.92 627.174 357.474 627.061 358.32C625.214 372.107 623.254 385.954 621.181 399.86ZM465.761 409.09C465.081 410.55 464.451 410.88 462.881 410.88C454.267 410.894 439.934 410.897 419.881 410.89C419.798 410.89 419.717 410.907 419.641 410.94C419.566 410.973 419.499 411.023 419.444 411.084C419.389 411.146 419.348 411.218 419.323 411.297C419.298 411.375 419.291 411.458 419.301 411.54C419.861 415.76 420.577 420.134 421.451 424.66C421.537 425.134 421.694 425.6 421.921 426.06C422.194 426.607 422.447 427.04 422.681 427.36C433.181 441.42 445.014 454.22 458.181 465.76C458.244 465.817 458.321 465.856 458.405 465.873C458.488 465.889 458.575 465.883 458.655 465.854C458.735 465.825 458.805 465.775 458.859 465.709C458.913 465.644 458.948 465.564 458.961 465.48C461.514 449.014 464.354 431.697 467.481 413.53C468.187 409.39 468.947 406.607 469.761 405.18C473.491 398.58 481.541 393.67 488.991 395.76C491.337 396.414 494.767 398.674 499.281 402.54C501.167 404.154 504.471 407.04 509.191 411.2C509.984 411.9 510.254 411.737 510.001 410.71C509.874 410.217 509.811 409.567 509.811 408.76C509.837 388.247 509.841 364.35 509.821 337.07C509.821 336.809 509.733 336.556 509.572 336.351C509.41 336.146 509.185 336.001 508.931 335.94C506.871 335.45 502.931 335.15 501.691 337.46C489.077 361.02 477.101 384.897 465.761 409.09ZM562.731 410.3C562.124 409.394 561.557 408.367 561.031 407.22C549.717 382.854 538.097 359.287 526.171 336.52C525.984 336.167 525.691 335.99 525.291 335.99H517.681C517.161 335.99 516.901 336.247 516.901 336.76V411.11C516.902 411.18 516.922 411.248 516.96 411.306C516.998 411.365 517.051 411.411 517.113 411.44C517.176 411.468 517.245 411.478 517.312 411.467C517.379 411.457 517.441 411.426 517.491 411.38C521.524 407.747 526.774 403.527 533.241 398.72C537.114 395.84 540.921 394.88 544.661 395.84C554.161 398.267 559.734 404.48 561.381 414.48C563.487 427.267 566.101 445.137 569.221 468.09C569.501 470.11 569.311 471.62 569.281 473.37C569.274 473.944 569.464 474.02 569.851 473.6C583.504 458.994 596.614 443.687 609.181 427.68C609.801 426.89 610.441 425.74 610.601 424.61C611.221 420.237 611.801 415.92 612.341 411.66C612.352 411.567 612.343 411.472 612.315 411.382C612.287 411.291 612.241 411.208 612.178 411.138C612.116 411.067 612.04 411.01 611.954 410.971C611.868 410.932 611.775 410.911 611.681 410.91H563.881C563.653 410.91 563.429 410.855 563.229 410.748C563.028 410.642 562.857 410.488 562.731 410.3ZM479.381 404.82C477.087 406.6 475.704 408.76 475.231 411.3C473.304 421.667 470.364 438.9 466.411 463C466.121 464.74 465.891 465.74 467.251 467.07C472.084 471.784 477.754 475.78 484.261 479.06C488.267 481.08 492.341 482.21 496.481 482.45C499.171 482.6 501.591 481.75 503.721 480.24C506.374 478.354 508.314 476.93 509.541 475.97C509.787 475.777 509.911 475.524 509.911 475.21V421.74C509.911 421.38 509.771 421.087 509.491 420.86C504.064 416.46 498.244 411.36 492.031 405.56C487.917 401.72 483.701 401.474 479.381 404.82ZM522.071 416.55C520.277 417.944 518.761 419.3 517.521 420.62C517.097 421.069 516.861 421.663 516.861 422.28V474.89C516.861 475.042 516.898 475.191 516.97 475.325C517.041 475.459 517.145 475.574 517.271 475.66C519.497 477.207 522.361 478.887 525.861 480.7C533.714 484.767 541.101 484.537 548.021 480.01C553.327 476.537 557.747 471.997 561.281 466.39C561.661 465.79 561.797 465.14 561.691 464.44C558.777 445.22 556.501 430.467 554.861 420.18C553.947 414.447 553.247 411.017 552.761 409.89C551.207 406.344 548.274 403.974 543.961 402.78C542.507 402.38 541.194 402.357 540.021 402.71C538.601 403.144 537.387 403.787 536.381 404.64C528.587 411.22 523.817 415.19 522.071 416.55ZM470.411 479.16C470.387 479.139 470.359 479.124 470.329 479.115C470.299 479.105 470.267 479.102 470.235 479.106C470.203 479.11 470.172 479.12 470.144 479.136C470.116 479.153 470.091 479.174 470.071 479.2C469.977 479.327 470.001 479.514 470.141 479.76C478.751 494.32 491.181 506.77 508.561 508.6C509.387 508.687 509.801 508.317 509.801 507.49V485.47C509.8 485.358 509.768 485.248 509.708 485.153C509.647 485.059 509.561 484.984 509.459 484.936C509.357 484.889 509.244 484.872 509.133 484.887C509.021 484.902 508.917 484.948 508.831 485.02C503.764 489.24 497.804 490.58 490.951 489.04C483.371 487.334 476.524 484.04 470.411 479.16ZM556.421 483.02C556.974 481.874 556.751 481.697 555.751 482.49C552.317 485.217 548.631 487.354 544.691 488.9C535.701 492.41 525.611 489.68 517.791 484.5C517.709 484.446 517.615 484.415 517.517 484.41C517.419 484.405 517.322 484.427 517.236 484.473C517.149 484.519 517.077 484.588 517.027 484.672C516.977 484.756 516.951 484.852 516.951 484.95V507.99C516.95 508.094 516.972 508.198 517.014 508.293C517.056 508.389 517.117 508.474 517.195 508.544C517.272 508.614 517.364 508.667 517.463 508.699C517.562 508.731 517.667 508.741 517.771 508.73C534.331 506.99 549.051 498.27 556.421 483.02Z" fill="#010101"/>
<path d="M421.621 182.62C421.567 182.167 421.131 181.257 420.311 179.89C406.804 157.423 397.227 141.487 391.58 132.08C390.067 129.56 387.154 124.557 382.841 117.07C380.567 113.123 377.541 108.18 373.761 102.24C372.761 100.667 372.631 98.8767 373.371 96.87C373.402 96.7847 373.455 96.7093 373.525 96.6515C373.595 96.5938 373.68 96.5558 373.769 96.5415C373.859 96.5272 373.951 96.5372 374.036 96.5703C374.12 96.6035 374.194 96.6586 374.251 96.7301C391.304 118.59 406.064 137.713 418.531 154.1C433.584 173.887 446.467 191.42 457.18 206.7C458.907 209.167 460.367 211.083 461.561 212.45C466.071 217.61 471.811 220.13 478.701 220.96C478.727 220.96 479.97 220.927 482.43 220.86C484.11 220.813 485.337 220.967 486.11 221.32C486.424 221.467 486.431 221.623 486.131 221.79C462.324 234.763 442.104 245.903 425.471 255.21C422.097 257.097 416.544 260.573 408.811 265.64C408.717 265.704 408.608 265.738 408.495 265.739C408.383 265.74 408.272 265.708 408.176 265.647C408.081 265.585 408.005 265.497 407.958 265.393C407.911 265.289 407.894 265.173 407.911 265.06C408.364 262.007 408.597 260.443 408.61 260.37C412.937 237.003 417.127 214.11 421.181 191.69C421.781 188.37 421.927 185.347 421.621 182.62Z" fill="white"/>
<path d="M604.19 189.46C602.72 191.95 602.05 194.03 602.8 196.81C606.22 209.51 609.596 222.224 612.93 234.95C613.35 236.55 614.703 241.487 616.99 249.76C618.263 254.334 619.523 259.294 620.77 264.64C620.93 265.334 620.71 265.487 620.11 265.1C615.11 261.834 611.576 259.54 609.51 258.22C606.09 256.034 602.473 253.89 598.66 251.79C579.42 241.21 561.053 231.29 543.56 222.03C542.58 221.51 542.643 221.277 543.75 221.33C550.89 221.65 558.66 219.88 564.25 215.19C565.756 213.924 567.84 211.407 570.5 207.64C581.446 192.154 589.376 181.2 594.29 174.78C597.31 170.834 612.533 150.984 639.96 115.23C644.866 108.824 649.536 102.634 653.969 96.6604C654.025 96.5855 654.101 96.5281 654.188 96.4949C654.276 96.4617 654.371 96.4541 654.462 96.4731C654.553 96.492 654.637 96.5366 654.704 96.6016C654.771 96.6667 654.818 96.7495 654.84 96.8404C655.413 99.267 655.126 101.487 653.98 103.5C649.07 112.12 642.86 123.59 638.24 131.48C625.76 152.827 614.41 172.154 604.19 189.46Z" fill="white"/>
<path d="M659.98 112.579C664.96 129.566 668.524 147.149 670.67 165.329C671.504 172.382 671.884 178.379 671.81 183.319C671.624 195.499 668.774 207.239 663.26 218.539C655.04 235.379 642.18 250.859 628.78 264.459C628.743 264.496 628.697 264.522 628.647 264.536C628.597 264.55 628.544 264.55 628.493 264.537C628.443 264.524 628.396 264.498 628.359 264.461C628.322 264.425 628.295 264.379 628.28 264.329C620.84 236.589 614.694 213.792 609.84 195.939C609.37 194.209 610.23 193.189 611.07 191.759C625.364 167.466 639.6 143.142 653.78 118.789C655.427 115.962 656.884 113.256 658.15 110.669C658.684 109.569 659.12 109.609 659.46 110.789C659.58 111.202 659.754 111.799 659.98 112.579Z" fill="white"/>
<path d="M368.34 113.961C368.634 112.908 368.857 112.174 369.01 111.761C369.437 110.581 369.974 110.528 370.62 111.601L414.43 184.041C414.604 184.328 414.687 184.638 414.68 184.971C414.674 187.144 414.417 189.694 413.91 192.621C410.344 213.128 405.954 236.648 400.74 263.181C400.724 263.265 400.686 263.344 400.629 263.408C400.572 263.473 400.499 263.521 400.417 263.547C400.335 263.574 400.248 263.578 400.164 263.559C400.08 263.541 400.003 263.5 399.94 263.441C384.054 248.954 371.89 232.111 363.45 212.911C357.57 199.541 356.32 183.801 357.76 168.991C359.44 151.684 362.967 133.341 368.34 113.961Z" fill="white"/>
<path d="M546.6 297.14C545.194 298.434 543.88 300.03 542.66 301.93C540.294 305.61 535.61 312.417 528.61 322.35C528.097 323.077 527.394 323.44 526.5 323.44H517.87C517.613 323.44 517.366 323.338 517.184 323.156C517.003 322.974 516.9 322.728 516.9 322.47V270.115V217.76C516.9 217.653 516.926 217.548 516.976 217.453C517.027 217.359 517.1 217.279 517.189 217.22C517.279 217.161 517.382 217.126 517.489 217.117C517.595 217.109 517.703 217.127 517.8 217.17C520.754 218.484 523.197 219.65 525.13 220.67C549.65 233.57 574.06 246.564 598.36 259.65C601.12 261.13 603.33 262.924 604.99 265.03C607.197 267.83 612.754 274.77 621.66 285.85C623.894 288.624 625.164 291.94 625.47 295.8C625.477 295.895 625.465 295.99 625.433 296.08C625.401 296.169 625.352 296.252 625.287 296.321C625.222 296.39 625.144 296.446 625.057 296.484C624.969 296.521 624.875 296.541 624.78 296.54H548.15C547.578 296.54 547.025 296.754 546.6 297.14Z" fill="white"/>
<path d="M484.081 298.991C482.821 297.291 482.351 296.761 480.381 296.711C471.814 296.511 447.664 296.474 407.931 296.601C407.847 296.602 407.764 296.583 407.688 296.547C407.613 296.511 407.546 296.458 407.494 296.393C407.442 296.327 407.406 296.251 407.388 296.169C407.37 296.087 407.371 296.002 407.391 295.921C407.744 294.441 408.281 293.044 409.001 291.731C412.654 285.051 417.981 276.131 424.981 264.971C426.691 262.241 428.621 261.561 431.291 260.081C456.924 245.807 482.737 231.524 508.731 217.231C508.844 217.169 508.972 217.137 509.102 217.139C509.231 217.141 509.358 217.176 509.47 217.241C509.581 217.307 509.674 217.4 509.739 217.512C509.804 217.624 509.839 217.751 509.841 217.881V322.751C509.841 322.891 509.785 323.026 509.685 323.126C509.586 323.225 509.451 323.281 509.311 323.281H501.521C501.357 323.281 501.197 323.241 501.054 323.166C500.911 323.091 500.79 322.983 500.701 322.851C492.767 311.217 487.227 303.264 484.081 298.991Z" fill="white"/>
<path d="M400.35 307.58V315.92C400.35 316.119 400.271 316.31 400.13 316.45C399.99 316.591 399.799 316.67 399.6 316.67H361.83C361.655 316.671 361.485 316.61 361.35 316.499C361.215 316.387 361.123 316.232 361.09 316.06L359.48 307.72C359.459 307.611 359.463 307.5 359.491 307.392C359.518 307.285 359.569 307.186 359.64 307.101C359.711 307.016 359.799 306.947 359.9 306.9C360 306.854 360.109 306.83 360.22 306.83H399.6C399.799 306.83 399.99 306.909 400.13 307.05C400.271 307.19 400.35 307.381 400.35 307.58Z" fill="white"/>
<path d="M632.1 315.87V307.62C632.1 307.389 632.191 307.168 632.354 307.005C632.518 306.842 632.739 306.75 632.97 306.75H674.07C674.199 306.749 674.327 306.777 674.444 306.831C674.561 306.886 674.665 306.966 674.747 307.066C674.829 307.165 674.888 307.282 674.92 307.407C674.952 307.533 674.955 307.663 674.93 307.79L673.23 316.04C673.19 316.237 673.084 316.414 672.929 316.542C672.775 316.669 672.58 316.739 672.38 316.74H632.97C632.855 316.74 632.742 316.718 632.637 316.674C632.531 316.63 632.435 316.566 632.354 316.485C632.274 316.404 632.21 316.309 632.166 316.203C632.122 316.097 632.1 315.984 632.1 315.87Z" fill="white"/>
<path d="M465.121 352.279C466.261 352.559 466.457 352.246 465.711 351.339C459.431 343.686 452.751 336.289 445.671 329.149C443.057 326.516 439.314 323.563 434.441 320.289C426.234 314.776 417.351 313.456 407.791 316.329C407.734 316.344 407.675 316.346 407.617 316.335C407.56 316.324 407.506 316.3 407.459 316.265C407.413 316.23 407.375 316.185 407.349 316.134C407.324 316.083 407.31 316.026 407.311 315.969V307.549C407.311 307.382 407.377 307.222 407.495 307.104C407.613 306.986 407.773 306.919 407.941 306.919C434.994 307.013 457.271 306.996 474.771 306.869C476.644 306.856 478.057 307.563 479.011 308.989C484.604 317.329 489.284 324.169 493.051 329.509C493.377 329.963 493.411 330.439 493.151 330.939L458.231 398.999C458.031 399.39 457.728 399.719 457.354 399.948C456.98 400.178 456.549 400.299 456.111 400.299H418.311C417.891 400.299 417.647 400.093 417.581 399.679C415.801 388.179 414.537 376.676 413.791 365.169C413.785 365.115 413.794 365.061 413.816 365.011C413.837 364.962 413.871 364.918 413.914 364.885C413.957 364.852 414.008 364.831 414.061 364.823C414.115 364.815 414.17 364.82 414.221 364.839C422.587 367.986 430.607 367.109 438.281 362.209C443.094 359.136 447.247 355.056 450.741 349.969C451.234 349.256 451.904 349.003 452.751 349.209L465.121 352.279Z" fill="white"/>
<path d="M566.82 352.24L577.23 350.23C578.317 350.023 579.194 350.36 579.86 351.24C584.02 356.74 588.77 361.45 595.21 364.27C602.864 367.63 610.477 367.616 618.05 364.23C618.161 364.181 618.282 364.162 618.402 364.176C618.522 364.189 618.636 364.234 618.733 364.307C618.83 364.379 618.906 364.476 618.953 364.587C618.999 364.698 619.016 364.82 619 364.94L614.24 399.28C614.202 399.557 614.064 399.811 613.852 399.995C613.641 400.179 613.37 400.28 613.09 400.28H570.39C570.324 400.28 570.258 400.261 570.2 400.226C570.142 400.191 570.094 400.14 570.06 400.08L535.8 331.66C535.628 331.318 535.551 330.936 535.577 330.554C535.604 330.172 535.733 329.805 535.95 329.49L551.07 307.48C551.187 307.31 551.344 307.172 551.526 307.076C551.709 306.98 551.913 306.93 552.12 306.93H624.71C625.05 306.93 625.22 307.1 625.22 307.44V316.22C625.22 316.586 625.047 316.716 624.7 316.61C613.5 313.21 603.137 315.216 593.61 322.63C582.86 330.99 575.32 340.03 566.3 351.39C565.7 352.136 565.874 352.42 566.82 352.24Z" fill="white"/>
<path d="M377.929 400.38C377.929 400.38 377.496 400.302 377.326 400.162C377.157 400.021 377.041 399.826 376.999 399.61L363.089 327.55C363.063 327.413 363.067 327.271 363.102 327.136C363.136 327 363.2 326.874 363.289 326.766C363.378 326.658 363.489 326.571 363.615 326.511C363.742 326.452 363.88 326.42 364.019 326.42H372.259C372.484 326.419 372.702 326.498 372.874 326.643C373.046 326.787 373.162 326.988 373.199 327.21L419.5 400.293L377.929 400.38Z" fill="white"/>
<path d="M621.18 399.85C623.253 385.944 625.213 372.097 627.06 358.31C627.173 357.464 627.88 355.91 629.18 353.65C629.867 352.457 630.617 350.284 631.43 347.13C631.897 345.297 632.16 343.027 632.22 340.32C632.333 335.074 632.3 330.59 632.12 326.87C632.117 326.81 632.127 326.749 632.148 326.692C632.169 326.635 632.201 326.583 632.242 326.539C632.283 326.495 632.332 326.46 632.387 326.436C632.442 326.413 632.501 326.4 632.56 326.4H670.43C670.99 326.4 671.213 326.674 671.1 327.22L656.19 399.83C656.162 399.974 656.085 400.104 655.972 400.197C655.859 400.29 655.717 400.341 655.57 400.34H621.6C621.539 400.341 621.479 400.329 621.424 400.303C621.369 400.278 621.32 400.241 621.28 400.195C621.24 400.148 621.21 400.093 621.193 400.034C621.176 399.974 621.171 399.912 621.18 399.85Z" fill="white"/>
<path d="M465.759 409.079C477.099 384.886 489.076 361.009 501.689 337.449C502.929 335.139 506.869 335.439 508.929 335.929C509.183 335.99 509.409 336.135 509.57 336.34C509.732 336.545 509.82 336.798 509.819 337.059C509.839 364.339 509.836 388.236 509.809 408.749C509.809 409.556 509.873 410.206 509.999 410.699C510.253 411.726 509.983 411.889 509.189 411.189C504.469 407.029 501.166 404.143 499.279 402.529C494.766 398.663 491.336 396.403 488.989 395.749C481.539 393.659 473.489 398.569 469.759 405.169C468.946 406.596 468.186 409.379 467.479 413.519C464.353 431.686 461.512 449.003 458.959 465.469C458.947 465.554 458.912 465.633 458.858 465.699C458.804 465.764 458.733 465.814 458.653 465.843C458.573 465.872 458.487 465.878 458.403 465.862C458.32 465.845 458.242 465.806 458.179 465.749C445.012 454.209 433.179 441.409 422.679 427.349C422.446 427.029 422.193 426.596 421.919 426.049C421.693 425.589 421.536 425.123 421.449 424.649C420.576 420.123 419.859 415.749 419.299 411.529C419.289 411.448 419.297 411.365 419.321 411.286C419.346 411.207 419.387 411.135 419.442 411.073C419.497 411.012 419.564 410.963 419.64 410.929C419.715 410.896 419.797 410.879 419.879 410.879C439.933 410.886 454.266 410.883 462.879 410.869C464.449 410.869 465.079 410.539 465.759 409.079Z" fill="white"/>
<path d="M562.73 410.29C562.857 410.478 563.028 410.632 563.228 410.738C563.429 410.845 563.653 410.9 563.88 410.9H611.68C611.775 410.901 611.868 410.922 611.954 410.961C612.039 411 612.116 411.057 612.178 411.128C612.24 411.199 612.287 411.282 612.315 411.372C612.343 411.462 612.352 411.557 612.34 411.65C611.8 415.91 611.22 420.227 610.6 424.6C610.44 425.73 609.8 426.88 609.18 427.67C596.614 443.677 583.504 458.984 569.85 473.59C569.464 474.01 569.274 473.934 569.28 473.36C569.31 471.61 569.5 470.1 569.22 468.08C566.1 445.127 563.487 427.257 561.38 414.47C559.734 404.47 554.16 398.257 544.66 395.83C540.92 394.87 537.114 395.83 533.24 398.71C526.774 403.517 521.524 407.737 517.49 411.37C517.44 411.417 517.378 411.447 517.311 411.457C517.244 411.468 517.175 411.458 517.113 411.43C517.051 411.401 516.997 411.355 516.959 411.296C516.922 411.238 516.901 411.17 516.9 411.1V336.75C516.9 336.237 517.16 335.98 517.68 335.98H525.29C525.69 335.98 525.984 336.157 526.17 336.51C538.097 359.277 549.717 382.844 561.03 407.21C561.557 408.357 562.124 409.384 562.73 410.29Z" fill="white"/>
<path d="M479.381 404.81C483.701 401.464 487.917 401.71 492.031 405.55C498.244 411.35 504.064 416.45 509.491 420.85C509.771 421.077 509.911 421.37 509.911 421.73V475.2C509.911 475.514 509.787 475.767 509.541 475.96C508.314 476.92 506.374 478.344 503.721 480.23C501.591 481.74 499.171 482.59 496.481 482.44C492.341 482.2 488.267 481.07 484.261 479.05C477.754 475.77 472.084 471.774 467.251 467.06C465.891 465.73 466.121 464.73 466.411 462.99C470.364 438.89 473.304 421.657 475.231 411.29C475.704 408.75 477.087 406.59 479.381 404.81Z" fill="white"/>
<path d="M522.069 416.54C523.816 415.18 528.586 411.21 536.379 404.63C537.386 403.776 538.599 403.133 540.019 402.7C541.193 402.346 542.506 402.37 543.959 402.77C548.273 403.963 551.206 406.333 552.759 409.88C553.246 411.006 553.946 414.436 554.859 420.17C556.499 430.456 558.776 445.21 561.689 464.43C561.796 465.13 561.659 465.78 561.279 466.38C557.746 471.986 553.326 476.526 548.019 480C541.099 484.526 533.713 484.756 525.859 480.69C522.359 478.876 519.496 477.196 517.269 475.65C517.143 475.564 517.04 475.449 516.969 475.314C516.897 475.18 516.86 475.031 516.859 474.88V422.27C516.86 421.652 517.096 421.059 517.519 420.61C518.759 419.29 520.276 417.933 522.069 416.54Z" fill="white"/>
<path d="M398.06 699.52C397.975 699.39 397.937 699.239 397.95 699.09C398.09 697.15 398.266 695.537 398.48 694.25C403.973 661.863 408.593 634.407 412.34 611.88C412.58 610.44 412.773 608.737 412.92 606.77C415.106 577.023 417.006 549.523 418.62 524.27C419.073 517.123 419.383 510.46 419.55 504.28C420.37 473.207 421.02 451.38 421.5 438.8C421.526 438.16 421.746 438.087 422.16 438.58C433.106 451.553 445.686 464.073 459.9 476.14C460.353 476.527 460.796 477.147 461.23 478C466.416 488.38 472.993 496.987 480.96 503.82C489.066 510.773 498.456 514.687 509.13 515.56C509.334 515.575 509.525 515.667 509.664 515.817L509.13 515.56C509.13 515.56 513.317 515.904 516 515.817C518.945 515.723 523.5 515 523.5 515L536.5 517.5L560.5 528.5L582 583L537.5 892.5C537.5 892.5 530.012 892.478 530 892.5C529.988 892.522 537.5 892.5 537.5 892.5C537.5 892.5 512.106 971.187 509.88 967.5C498 947.86 484.843 849.727 478.77 839.42C482.663 846.18 475.956 834.653 478.77 839.42C461.33 809.18 429.656 754.22 403.87 709.12C401.636 705.22 399.7 702.02 398.06 699.52Z" fill="white"/>
<path d="M470.41 479.149C476.523 484.029 483.37 487.323 490.95 489.029C497.803 490.569 503.763 489.229 508.83 485.009C508.916 484.937 509.02 484.891 509.132 484.876C509.243 484.861 509.356 484.878 509.458 484.925C509.56 484.973 509.646 485.048 509.707 485.143C509.767 485.237 509.799 485.347 509.8 485.459V507.479C509.8 508.306 509.386 508.676 508.56 508.589C491.18 506.759 478.75 494.309 470.14 479.749C470 479.503 469.976 479.316 470.07 479.189C470.09 479.163 470.115 479.142 470.143 479.126C470.171 479.109 470.202 479.099 470.234 479.095C470.266 479.092 470.298 479.094 470.328 479.104C470.358 479.113 470.386 479.129 470.41 479.149Z" fill="white"/>
<path d="M556.419 483.011C549.049 498.261 534.329 506.981 517.769 508.721C517.666 508.732 517.561 508.721 517.461 508.689C517.362 508.657 517.271 508.604 517.193 508.534C517.116 508.465 517.054 508.379 517.012 508.284C516.97 508.188 516.949 508.085 516.949 507.981V484.941C516.949 484.843 516.975 484.747 517.026 484.663C517.076 484.579 517.148 484.51 517.234 484.464C517.32 484.418 517.418 484.396 517.515 484.4C517.613 484.405 517.708 484.436 517.789 484.491C525.609 489.671 535.699 492.401 544.689 488.891C548.629 487.344 552.316 485.207 555.749 482.481C556.749 481.687 556.973 481.864 556.419 483.011Z" fill="white"/>
</g>
<defs>
<clipPath id="clip0_627_37">
<rect width="1024" height="1024" fill="white"/>
</clipPath>
</defs>
</svg>
